SplineFontDB: 3.0
FontName: Comme-Thin
FamilyName: Comme
Copyright: Digitized data Copyright (c) 2011-2014, vernon adams.
ItalicAngle: 0
UnderlinePosition: 0
UnderlineWidth: 0
Ascent: 1638
Descent: 410
UFOAscent: 1560
UFODescent: -556
LayerCount: 2
Layer: 0 0 "Back"  1
Layer: 1 0 "Fore"  0
OS2Version: 0
OS2_WeightWidthSlopeOnly: 0
OS2_UseTypoMetrics: 0
CreationTime: 1390951221
ModificationTime: 1390955976
PfmFamily: 0
TTFWeight: 100
TTFWidth: 5
LineGap: 0
VLineGap: 0
OS2TypoAscent: 2416
OS2TypoAOffset: 0
OS2TypoDescent: -512
OS2TypoDOffset: 0
OS2TypoLinegap: 0
OS2WinAscent: 2416
OS2WinAOffset: 0
OS2WinDescent: 512
OS2WinDOffset: 0
HheadAscent: 0
HheadAOffset: 1
HheadDescent: 0
HheadDOffset: 1
OS2Vendor: 'NeWT'
Lookup: 4 0 1 "ligaStandardLigatureslookup0"  {"ligaStandardLigatureslookup0 subtable"  } ['liga' ('latn' <'dflt' > 'grek' <'dflt' > 'DFLT' <'dflt' > ) ]
MarkAttachClasses: 1
DEI: 91125
LangName: 1033 "" "" "" "" "" "Version 2" "" "Comme is a trademark of Vernon Adams and may be registered in certain jurisdictions." "newtypography" "Vernon Adams" "" "newtypography.co.uk" "newtypography.co.uk" "Copyright (c) 2014, vernon adams.+AAoACgAA-This Font Software is licensed under the SIL Open Font License, Version 1.1.+AAoA-This license is available with a FAQ at:+AAoA-http://scripts.sil.org/OFL+AAoA" "http://scripts.sil.org/OFL" "" "Comme" "Thin" 
PickledData: "(dp1
S'public.glyphOrder'
p2
(S'A'
S'Agrave'
S'Aacute'
S'Acircumflex'
S'Atilde'
S'Adieresis'
S'Aring'
S'Amacron'
S'Abreve'
S'Aogonek'
S'uni01CD'
S'uni0200'
S'uni0202'
S'uni0226'
S'B'
S'uni1E02'
S'C'
S'Ccedilla'
S'Cacute'
S'Ccircumflex'
S'Cdotaccent'
S'Ccaron'
S'D'
S'Dcaron'
S'uni1E0A'
S'E'
S'Egrave'
S'Eacute'
S'Ecircumflex'
S'Edieresis'
S'Emacron'
S'Ebreve'
S'Edotaccent'
S'Eogonek'
S'Ecaron'
S'uni0204'
S'uni0206'
S'uni0228'
S'uni1EBC'
S'F'
S'uni1E1E'
S'G'
S'Gcircumflex'
S'Gbreve'
S'Gdotaccent'
S'Gcommaaccent'
S'Gcaron'
S'uni01F4'
S'H'
S'Hcircumflex'
S'uni021E'
S'I'
S'Igrave'
S'Iacute'
S'Icircumflex'

StartChar: A
Encoding: 65 65 0
Width: 1278
VWidth: 0
GlyphClass: 2
Flags: HMW
PickledData: "(dp1
S'org.pippin.gimp.org.kernagic'
p2
(dp3
S'lstem'
p4
I0
sS'rstem'
p5
I0
ssS'com.typemytype.robofont.layerData'
p6
(dp7
sS'org.robofab.postScriptHintData'
p8
(dp9
s."
AnchorPoint: "top" 639 1455 basechar 0
LayerCount: 2
Fore
SplineSet
607 1455 m 1
 670 1455 l 1
 1227 0 l 1
 1145 0 l 1
 952 514 l 1
 338 514 l 1
 141 0 l 1
 50 0 l 1
 607 1455 l 1
364 582 m 1
 927 582 l 1
 638 1339 l 1
 364 582 l 1
EndSplineSet
EndChar

StartChar: AE
Encoding: 198 198 1
Width: 1939
VWidth: 0
GlyphClass: 2
Flags: HMW
PickledData: "(dp1
S'org.pippin.gimp.org.kernagic'
p2
(dp3
S'lstem'
p4
I0
sS'rstem'
p5
I0
ssS'com.typemytype.robofont.layerData'
p6
(dp7
sS'org.robofab.postScriptHintData'
p8
(dp9
s."
LayerCount: 2
Fore
SplineSet
1060 582 m 1
 1060 1366 l 1
 544 582 l 1
 1060 582 l 1
1034 1455 m 1
 1890 1455 l 1
 1887 1384 l 1
 1144 1384 l 1
 1144 780 l 1
 1803 780 l 1
 1803 711 l 1
 1144 711 l 1
 1144 69 l 1
 1889 69 l 1
 1881 0 l 1
 1060 0 l 1
 1060 514 l 1
 497 514 l 1
 154 0 l 1
 55 0 l 1
 1034 1455 l 1
EndSplineSet
EndChar

StartChar: B
Encoding: 66 66 13
Width: 1366
VWidth: 0
GlyphClass: 2
Flags: HMW
PickledData: "(dp1
S'org.pippin.gimp.org.kernagic'
p2
(dp3
S'lstem'
p4
I0
sS'rstem'
p5
I0
ssS'com.typemytype.robofont.layerData'
p6
(dp7
sS'org.robofab.postScriptHintData'
p8
(dp9
s."
AnchorPoint: "top" 685 1456 basechar 0
LayerCount: 2
Fore
SplineSet
571 -13 m 0
 469 -13 354 -9 222 0 c 1
 222 1454 l 1
 347 1463 456 1467 552 1467 c 0
 1068 1467 1182 1342 1182 1104 c 0
 1182 942 1138 825 916 761 c 1
 1135 716 1244 595 1244 400 c 0
 1244 130 1135 -13 571 -13 c 0
314 1386 m 1
 314 803 l 1
 730 803 l 2
 941 803 1098 851 1098 1098 c 0
 1098 1324 989 1393 574 1393 c 0
 499 1393 412 1390 314 1386 c 1
314 729 m 1
 314 67 l 1
 422 62 517 59 600 59 c 0
 1070 59 1151 148 1151 393 c 0
 1151 652 988 729 647 729 c 2
 314 729 l 1
EndSplineSet
EndChar

StartChar: C
Encoding: 67 67 14
Width: 1317
VWidth: 0
GlyphClass: 2
Flags: HMW
PickledData: "(dp1
S'org.pippin.gimp.org.kernagic'
p2
(dp3
S'lstem'
p4
I0
sS'rstem'
p5
I0
ssS'com.typemytype.robofont.layerData'
p6
(dp7
sS'org.robofab.postScriptHintData'
p8
(dp9
s."
AnchorPoint: "top" 820 1455 basechar 0
LayerCount: 2
Fore
SplineSet
148 728 m 0
 148 1188 399 1476 797 1476 c 0
 1005 1476 1191 1356 1269 1163 c 1
 1210 1138 l 1
 1196 1138 l 1
 1127 1303 972 1407 797 1407 c 0
 455 1407 241 1146 241 728 c 0
 241 310 455 49 797 49 c 0
 972 49 1127 153 1196 318 c 1
 1209 318 l 1
 1269 294 l 1
 1191 100 1005 -20 797 -20 c 0
 399 -20 148 268 148 728 c 0
EndSplineSet
EndChar

StartChar: D
Encoding: 68 68 21
Width: 1525
VWidth: 0
GlyphClass: 2
Flags: HMW
PickledData: "(dp1
S'org.pippin.gimp.org.kernagic'
p2
(dp3
S'lstem'
p4
I0
sS'rstem'
p5
I0
ssS'com.typemytype.robofont.layerData'
p6
(dp7
sS'com.fontlab.hintData'
p8
(dp9
S'vhints'
p10
((dp11
S'position'
p12
I1280
sS'width'
p13
I122
stp14
sS'hhints'
p15
((dp16
g12
I0
sg13
I94
s(dp17
g12
I1355
sg13
I94
stp18
ssS'org.robofab.postScriptHintData'
p19
(dp20
s."
AnchorPoint: "top" 762 1455 basechar 0
LayerCount: 2
Fore
SplineSet
222 0 m 1
 222 1455 l 1
 335 1464 437 1468 530 1468 c 0
 1190 1468 1378 1241 1378 729 c 0
 1378 221 1180 -10 490 -10 c 0
 408 -10 319 -6 222 0 c 1
314 66 m 1
 389 61 459 58 524 58 c 0
 1115 58 1285 273 1285 724 c 0
 1285 1206 1112 1394 513 1394 c 0
 451 1394 385 1392 314 1388 c 1
 314 66 l 1
EndSplineSet
EndChar

StartChar: Delta
Encoding: 916 916 24
Width: 1359
VWidth: 0
GlyphClass: 2
Flags: HMW
PickledData: "(dp1
S'org.pippin.gimp.org.kernagic'
p2
(dp3
S'lstem'
p4
I0
sS'rstem'
p5
I0
ssS'com.typemytype.robofont.layerData'
p6
(dp7
S'b'
(dp8
S'name'
p9
S'Delta'
p10
sS'lib'
p11
(dp12
sS'unicodes'
p13
(tsS'width'
p14
I1334
sS'contours'
p15
(tsS'components'
p16
(tsS'anchors'
p17
(tsssS'org.robofab.postScriptHintData'
p18
(dp19
s."
LayerCount: 2
Fore
SplineSet
229 88 m 1
 1095 88 l 1
 650 1415 l 1
 229 88 l 1
122 0 m 1
 608 1500 l 1
 700 1500 l 1
 1203 0 l 1
 122 0 l 1
EndSplineSet
EndChar

StartChar: E
Encoding: 69 69 25
Width: 1135
VWidth: 0
GlyphClass: 2
Flags: HMW
PickledData: "(dp1
S'org.pippin.gimp.org.kernagic'
p2
(dp3
S'lstem'
p4
I0
sS'rstem'
p5
I0
ssS'com.typemytype.robofont.layerData'
p6
(dp7
sS'org.robofab.postScriptHintData'
p8
(dp9
s."
AnchorPoint: "top" 662 1455 basechar 0
LayerCount: 2
Fore
SplineSet
222 1455 m 1
 1077 1455 l 1
 1075 1384 l 1
 314 1384 l 1
 314 780 l 1
 991 780 l 1
 991 710 l 1
 314 710 l 1
 314 69 l 1
 1077 69 l 1
 1069 0 l 1
 222 0 l 1
 222 1455 l 1
EndSplineSet
EndChar

StartChar: Eng
Encoding: 330 330 34
Width: 1541
VWidth: 0
GlyphClass: 2
Flags: HMW
PickledData: "(dp1
S'org.robofab.postScriptHintData'
p2
(dp3
s."
LayerCount: 2
Fore
SplineSet
1246 1455 m 1
 1320 1455 l 1
 1320 -49 l 2
 1320 -283 1244 -423 802 -423 c 1
 790 -356 l 1
 1162 -356 1246 -277 1246 -27 c 2
 1246 0 l 1
 1240 0 l 1
 288 1344 l 1
 297 992 l 1
 297 0 l 1
 222 0 l 1
 222 1455 l 1
 299 1455 l 1
 1246 118 l 1
 1246 1455 l 1
EndSplineSet
EndChar

StartChar: Euro
Encoding: 8364 8364 37
Width: 1332
VWidth: 0
GlyphClass: 2
Flags: HMW
PickledData: "(dp1
S'org.pippin.gimp.org.kernagic'
p2
(dp3
S'lstem'
p4
I0
sS'rstem'
p5
I0
ssS'com.typemytype.robofont.layerData'
p6
(dp7
S'b'
(dp8
S'name'
p9
S'Euro'
p10
sS'lib'
p11
(dp12
sS'unicodes'
p13
(tsS'width'
p14
I1391
sS'contours'
p15
(tsS'components'
p16
(tsS'anchors'
p17
(tsssS'org.robofab.postScriptHintData'
p18
(dp19
s."
LayerCount: 2
Fore
SplineSet
3 558 m 1
 15 623 l 1
 147 623 l 1
 144 657 142 692 142 728 c 0
 142 776 145 823 150 867 c 1
 14 867 l 1
 25 929 l 1
 160 929 l 1
 224 1270 455 1476 791 1476 c 0
 999 1476 1185 1356 1263 1163 c 1
 1204 1138 l 1
 1190 1138 l 1
 1121 1303 966 1407 791 1407 c 0
 508 1407 313 1228 254 929 c 1
 946 929 l 1
 933 867 l 1
 244 867 l 1
 238 823 235 777 235 728 c 0
 235 692 237 657 240 623 c 1
 933 623 l 1
 920 558 l 1
 248 558 l 1
 299 240 498 49 791 49 c 0
 966 49 1121 153 1190 318 c 1
 1203 318 l 1
 1263 294 l 1
 1185 100 999 -20 791 -20 c 0
 445 -20 209 198 154 558 c 1
 3 558 l 1
EndSplineSet
EndChar

StartChar: F
Encoding: 70 70 38
Width: 1056
VWidth: 0
GlyphClass: 2
Flags: HMW
PickledData: "(dp1
S'org.pippin.gimp.org.kernagic'
p2
(dp3
S'lstem'
p4
I0
sS'rstem'
p5
I705
ssS'com.typemytype.robofont.layerData'
p6
(dp7
sS'org.robofab.postScriptHintData'
p8
(dp9
s."
AnchorPoint: "top" 538 1455 basechar 0
LayerCount: 2
Fore
SplineSet
222 1455 m 1
 990 1455 l 1
 982 1386 l 1
 319 1386 l 1
 319 765 l 1
 936 765 l 1
 936 700 l 1
 319 700 l 1
 319 0 l 1
 222 0 l 1
 222 1455 l 1
EndSplineSet
EndChar

StartChar: G
Encoding: 71 71 39
Width: 1487
VWidth: 0
GlyphClass: 2
Flags: HMW
PickledData: "(dp1
S'org.pippin.gimp.org.kernagic'
p2
(dp3
S'lstem'
p4
I0
sS'rstem'
p5
I0
ssS'com.typemytype.robofont.layerData'
p6
(dp7
sS'org.robofab.postScriptHintData'
p8
(dp9
s."
AnchorPoint: "top" 855 1455 basechar 0
LayerCount: 2
Fore
SplineSet
853 -18 m 0
 384 -18 147 313 147 720 c 0
 147 1188 466 1473 859 1473 c 0
 1006 1473 1159 1434 1302 1353 c 1
 1273 1286 l 1
 1263 1286 l 1
 1141 1361 1004 1400 866 1400 c 0
 531 1400 240 1165 240 721 c 0
 240 320 459 53 872 53 c 0
 1006 53 1152 77 1233 101 c 1
 1233 631 l 1
 885 631 l 1
 897 716 l 1
 1326 716 l 1
 1326 60 l 1
 1185 11 1052 -18 853 -18 c 0
EndSplineSet
EndChar

StartChar: H
Encoding: 72 72 45
Width: 1491
VWidth: 0
GlyphClass: 2
Flags: HMW
PickledData: "(dp1
S'org.pippin.gimp.org.kernagic'
p2
(dp3
S'lstem'
p4
I0
sS'rstem'
p5
I0
ssS'com.typemytype.robofont.layerData'
p6
(dp7
sS'org.robofab.postScriptHintData'
p8
(dp9
s."
AnchorPoint: "top" 747 1455 basechar 0
LayerCount: 2
Fore
SplineSet
1180 717 m 1
 311 717 l 1
 311 0 l 1
 218 0 l 1
 218 1455 l 1
 311 1455 l 1
 311 778 l 1
 1180 778 l 1
 1180 1455 l 1
 1272 1455 l 1
 1272 0 l 1
 1180 0 l 1
 1180 717 l 1
EndSplineSet
EndChar

StartChar: Hbar
Encoding: 294 294 46
Width: 1486
VWidth: 0
GlyphClass: 2
Flags: HMW
PickledData: "(dp1
S'org.pippin.gimp.org.kernagic'
p2
(dp3
S'lstem'
p4
I0
sS'rstem'
p5
I0
ssS'com.typemytype.robofont.layerData'
p6
(dp7
sS'org.robofab.postScriptHintData'
p8
(dp9
s."
LayerCount: 2
Fore
SplineSet
105 1143 m 1
 1377 1143 l 1
 1377 1084 l 1
 105 1084 l 1
 105 1143 l 1
EndSplineSet
Refer: 45 72 N 1 0 0 1 0 0 2
EndChar

StartChar: I
Encoding: 73 73 48
Width: 751
VWidth: 0
GlyphClass: 2
Flags: HMW
PickledData: "(dp1
S'org.pippin.gimp.org.kernagic'
p2
(dp3
S'lstem'
p4
I0
sS'rstem'
p5
I0
ssS'com.typemytype.robofont.layerData'
p6
(dp7
sS'com.fontlab.hintData'
p8
(dp9
S'vhints'
p10
((dp11
S'position'
p12
I111
sS'width'
p13
I529
stp14
sS'hhints'
p15
((dp16
g12
I0
sg13
I86
s(dp17
g12
I1363
sg13
I86
stp18
ssS'org.robofab.postScriptHintData'
p19
(dp20
s."
AnchorPoint: "top" 375 1455 basechar 0
LayerCount: 2
Fore
SplineSet
119 1455 m 1
 633 1455 l 1
 633 1397 l 1
 423 1397 l 1
 423 58 l 1
 633 58 l 1
 633 0 l 1
 119 0 l 1
 119 58 l 1
 330 58 l 1
 330 1397 l 1
 119 1397 l 1
 119 1455 l 1
EndSplineSet
EndChar

StartChar: J
Encoding: 74 74 59
Width: 674
VWidth: 0
GlyphClass: 2
Flags: HMW
PickledData: "(dp1
S'org.pippin.gimp.org.kernagic'
p2
(dp3
S'lstem'
p4
I132
sS'rstem'
p5
I0
ssS'com.typemytype.robofont.layerData'
p6
(dp7
sS'org.robofab.postScriptHintData'
p8
(dp9
s."
AnchorPoint: "top" 406 1455 basechar 0
LayerCount: 2
Fore
SplineSet
358 1455 m 1
 451 1455 l 1
 451 99 l 2
 451 -179 395 -235 160 -329 c 2
 103 -351 l 1
 72 -278 l 1
 136 -252 l 2
 312 -177 358 -153 358 63 c 2
 358 1455 l 1
EndSplineSet
EndChar

StartChar: K
Encoding: 75 75 61
Width: 1241
VWidth: 0
GlyphClass: 2
Flags: HMW
PickledData: "(dp1
S'org.pippin.gimp.org.kernagic'
p2
(dp3
S'lstem'
p4
I0
sS'rstem'
p5
I851
ssS'com.typemytype.robofont.layerData'
p6
(dp7
sS'org.robofab.postScriptHintData'
p8
(dp9
s."
AnchorPoint: "top" 623 1455 basechar 0
LayerCount: 2
Fore
SplineSet
1139 1456 m 1
 1139 1449 l 1
 514 809 l 1
 1180 7 l 1
 1180 0 l 1
 1076 0 l 1
 441 764 l 1
 314 639 l 1
 314 0 l 1
 222 0 l 1
 222 1456 l 1
 314 1456 l 1
 314 724 l 1
 1035 1456 l 1
 1139 1456 l 1
EndSplineSet
EndChar

StartChar: L
Encoding: 76 76 63
Width: 1081
VWidth: 0
GlyphClass: 2
Flags: HMW
PickledData: "(dp1
S'org.pippin.gimp.org.kernagic'
p2
(dp3
S'lstem'
p4
I0
sS'rstem'
p5
I597
ssS'com.typemytype.robofont.layerData'
p6
(dp7
sS'org.robofab.postScriptHintData'
p8
(dp9
s."
AnchorPoint: "top" 533 1455 basechar 0
LayerCount: 2
Fore
SplineSet
222 1455 m 1
 314 1455 l 1
 314 69 l 1
 1017 69 l 1
 1020 0 l 1
 222 0 l 1
 222 1455 l 1
EndSplineSet
EndChar

StartChar: M
Encoding: 77 77 69
Width: 1765
VWidth: 0
GlyphClass: 2
Flags: HMW
PickledData: "(dp1
S'org.pippin.gimp.org.kernagic'
p2
(dp3
S'lstem'
p4
I0
sS'rstem'
p5
I0
ssS'com.fontlab.hintData'
p6
(dp7
S'vhints'
p8
((dp9
S'position'
p10
I185
sS'width'
p11
I166
s(dp12
g10
I214
sg11
I151
s(dp13
g10
I332
sg11
I33
s(dp14
g10
I1463
sg11
I149
s(dp15
g10
I1463
sg11
I39
s(dp16
g10
I1477
sg11
I164
stp17
ssS'com.typemytype.robofont.guides'
p18
((dp19
S'y'
I378
sS'x'
I548
sS'magnetic'
p20
I5
sS'angle'
p21
I0
sS'isGlobal'
p22
I00
stp23
sS'com.typemytype.robofont.layerData'
p24
(dp25
sS'org.robofab.postScriptHintData'
p26
(dp27
s."
AnchorPoint: "top" 884 1455 basechar 0
LayerCount: 2
Fore
SplineSet
205 0 m 1
 205 581 l 1
 220 1455 l 1
 350 1455 l 1
 886 227 l 1
 1422 1455 l 1
 1543 1455 l 1
 1563 581 l 1
 1563 0 l 1
 1478 0 l 1
 1478 583 l 1
 1467 1359 l 1
 926 134 l 1
 845 134 l 1
 301 1370 l 1
 289 581 l 1
 289 0 l 1
 205 0 l 1
EndSplineSet
EndChar

StartChar: N
Encoding: 78 78 70
Width: 1541
VWidth: 0
GlyphClass: 2
Flags: HMW
PickledData: "(dp1
S'org.pippin.gimp.org.kernagic'
p2
(dp3
S'lstem'
p4
I0
sS'rstem'
p5
I0
ssS'com.typemytype.robofont.layerData'
p6
(dp7
sS'org.robofab.postScriptHintData'
p8
(dp9
s."
AnchorPoint: "top" 773 1455 basechar 0
LayerCount: 2
Fore
SplineSet
1246 1455 m 1
 1320 1455 l 1
 1320 0 l 1
 1240 0 l 1
 288 1344 l 1
 297 992 l 1
 297 0 l 1
 222 0 l 1
 222 1455 l 1
 299 1455 l 1
 1252 110 l 1
 1246 472 l 1
 1246 1455 l 1
EndSplineSet
EndChar

StartChar: O
Encoding: 79 79 75
Width: 1644
VWidth: 0
GlyphClass: 2
Flags: HMW
PickledData: "(dp1
S'org.pippin.gimp.org.kernagic'
p2
(dp3
S'lstem'
p4
I0
sS'rstem'
p5
I0
ssS'com.fontlab.hintData'
p6
(dp7
S'vhints'
p8
((dp9
S'position'
p10
I150
sS'width'
p11
I122
s(dp12
g10
I1390
sg11
I122
stp13
sS'hhints'
p14
((dp15
g10
I-19
sg11
I96
s(dp16
g10
I1372
sg11
I96
stp17
ssS'com.typemytype.robofont.guides'
p18
(tsS'com.typemytype.robofont.layerData'
p19
(dp20
sS'org.robofab.postScriptHintData'
p21
(dp22
s."
AnchorPoint: "top" 822 1455 basechar 0
LayerCount: 2
Fore
SplineSet
1404 714 m 0
 1404 1120 1234 1405 826 1405 c 0
 418 1405 241 1124 241 714 c 0
 241 328 401 50 823 50 c 0
 1246 50 1404 328 1404 714 c 0
148 714 m 0
 148 1163 370 1474 827 1474 c 0
 1268 1474 1497 1157 1497 710 c 0
 1497 292 1286 -19 826 -19 c 0
 356 -19 148 283 148 714 c 0
EndSplineSet
EndChar

StartChar: OE
Encoding: 338 338 76
Width: 2738
VWidth: 0
GlyphClass: 2
Flags: HMW
PickledData: "(dp1
S'org.pippin.gimp.org.kernagic'
p2
(dp3
S'lstem'
p4
I0
sS'rstem'
p5
I0
ssS'com.typemytype.robofont.layerData'
p6
(dp7
S'b'
(dp8
S'name'
p9
S'OE'
p10
sS'lib'
p11
(dp12
sS'unicodes'
p13
(tsS'width'
p14
I2367
sS'contours'
p15
(tsS'components'
p16
(tsS'anchors'
p17
(tsssS'org.robofab.postScriptHintData'
p18
(dp19
s."
LayerCount: 2
Fore
SplineSet
1403 714 m 0
 1403 1120 1233 1405 825 1405 c 0
 417 1405 240 1124 240 714 c 0
 240 328 400 50 822 50 c 0
 1245 50 1403 328 1403 714 c 0
147 714 m 0
 147 1163 369 1474 826 1474 c 0
 1105 1474 1300 1343 1403 1131 c 1
 1403 1455 l 1
 2259 1455 l 1
 2256 1384 l 1
 1496 1384 l 1
 1496 780 l 1
 2172 780 l 1
 2172 710 l 1
 1496 710 l 1
 1496 69 l 1
 2258 69 l 1
 2251 0 l 1
 1403 0 l 1
 1403 303 l 1
 1302 106 1112 -19 825 -19 c 0
 355 -19 147 283 147 714 c 0
EndSplineSet
EndChar

StartChar: Oslash
Encoding: 216 216 84
Width: 1678
VWidth: 0
GlyphClass: 2
Flags: HMW
PickledData: "(dp1
S'org.pippin.gimp.org.kernagic'
p2
(dp3
S'lstem'
p4
I0
sS'rstem'
p5
I0
ssS'com.typemytype.robofont.layerData'
p6
(dp7
sS'org.robofab.postScriptHintData'
p8
(dp9
s."
AnchorPoint: "top" 827 1456 basechar 0
LayerCount: 2
Fore
SplineSet
823 50 m 0
 1246 50 1404 328 1404 714 c 0
 1404 1013 1313 1246 1103 1349 c 1
 600 82 l 1
 665 61 739 50 823 50 c 0
545 103 m 1
 1047 1371 l 1
 983 1393 909 1405 826 1405 c 0
 418 1405 241 1124 241 714 c 0
 241 428 329 202 545 103 c 1
479 -218 m 1
 424 -197 l 1
 517 37 l 1
 264 143 148 393 148 714 c 0
 148 1163 370 1474 827 1474 c 0
 919 1474 1000 1460 1073 1435 c 1
 1167 1669 l 1
 1226 1649 l 1
 1130 1413 l 1
 1372 1299 1497 1040 1497 710 c 0
 1497 292 1286 -19 826 -19 c 0
 731 -19 647 -6 573 17 c 1
 479 -218 l 1
EndSplineSet
EndChar

StartChar: P
Encoding: 80 80 87
Width: 1203
VWidth: 0
GlyphClass: 2
Flags: HMW
PickledData: "(dp1
S'org.pippin.gimp.org.kernagic'
p2
(dp3
S'lstem'
p4
I0
sS'rstem'
p5
I807
ssS'com.typemytype.robofont.layerData'
p6
(dp7
sS'org.robofab.postScriptHintData'
p8
(dp9
s."
AnchorPoint: "top" 605 1455 basechar 0
LayerCount: 2
Fore
SplineSet
222 1454 m 1
 340 1462 443 1466 533 1466 c 0
 983 1466 1102 1365 1102 1112 c 0
 1102 837 990 722 534 722 c 0
 468 722 395 724 314 729 c 1
 314 0 l 1
 222 0 l 1
 222 1454 l 1
314 799 m 1
 395 796 467 794 531 794 c 0
 928 794 1010 860 1010 1115 c 0
 1010 1326 913 1394 551 1394 c 0
 482 1394 403 1391 314 1387 c 1
 314 799 l 1
EndSplineSet
EndChar

StartChar: Q
Encoding: 81 81 88
Width: 1642
VWidth: 0
GlyphClass: 2
Flags: HMW
PickledData: "(dp1
S'org.pippin.gimp.org.kernagic'
p2
(dp3
S'lstem'
p4
I0
sS'rstem'
p5
I0
ssS'com.typemytype.robofont.layerData'
p6
(dp7
sS'org.robofab.postScriptHintData'
p8
(dp9
s."
LayerCount: 2
Fore
SplineSet
975 14 m 1
 1037 37 l 1
 1086 -78 1252 -272 1319 -346 c 1
 1269 -395 l 1
 1234 -343 1061 -166 975 14 c 1
EndSplineSet
Refer: 75 79 N 1 0 0 1 0 0 2
EndChar

StartChar: R
Encoding: 82 82 89
Width: 1399
VWidth: 0
GlyphClass: 2
Flags: HMW
PickledData: "(dp1
S'org.pippin.gimp.org.kernagic'
p2
(dp3
S'lstem'
p4
I0
sS'rstem'
p5
I839
ssS'com.typemytype.robofont.layerData'
p6
(dp7
sS'com.fontlab.hintData'
p8
(dp9
S'vhints'
p10
((dp11
S'position'
p12
I1122
sS'width'
p13
I117
stp14
sS'hhints'
p15
((dp16
g12
I722
sg13
I96
s(dp17
g12
I1355
sg13
I94
stp18
ssS'org.robofab.postScriptHintData'
p19
(dp20
s."
AnchorPoint: "top" 698 1456 basechar 0
LayerCount: 2
Fore
SplineSet
222 0 m 1
 222 1454 l 1
 372 1462 500 1467 609 1467 c 0
 1133 1467 1215 1364 1216 1110 c 0
 1216 890 1125 798 946 763 c 1
 1271 13 l 1
 1271 0 l 1
 1184 0 l 1
 851 755 l 1
 314 755 l 1
 314 0 l 1
 222 0 l 1
314 1388 m 1
 314 823 l 1
 771 823 l 2
 1071 823 1130 897 1130 1108 c 0
 1129 1313 1058 1400 641 1400 c 0
 550 1400 442 1396 314 1388 c 1
EndSplineSet
EndChar

StartChar: S
Encoding: 83 83 93
Width: 1192
VWidth: 0
GlyphClass: 2
Flags: HMW
PickledData: "(dp1
S'org.pippin.gimp.org.kernagic'
p2
(dp3
S'lstem'
p4
I185
sS'rstem'
p5
I826
ssS'com.typemytype.robofont.guides'
p6
((dp7
S'y'
I973
sS'x'
I1035
sS'magnetic'
p8
I5
sS'angle'
p9
F90
sS'isGlobal'
p10
I00
s(dp11
S'y'
I382
sS'x'
I75
sg8
I5
sg9
F90
sg10
I00
stp12
sS'com.typemytype.robofont.layerData'
p13
(dp14
sS'org.robofab.postScriptHintData'
p15
(dp16
s."
AnchorPoint: "top" 615 1457 basechar 0
LayerCount: 2
Fore
SplineSet
995 388 m 0
 995 548 928 604 705 693 c 2
 472 789 l 2
 280 866 164 921 164 1118 c 0
 164 1411 437 1474 640 1474 c 0
 812 1474 951 1398 1006 1345 c 1
 974 1294 l 1
 965 1294 l 1
 915 1333 813 1411 642 1411 c 0
 464 1411 248 1346 248 1133 c 0
 248 970 304 938 493 860 c 2
 725 764 l 2
 905 691 1074 629 1074 391 c 0
 1074 75 854 -19 599 -19 c 0
 312 -19 191 103 151 144 c 1
 192 195 l 1
 199 195 l 1
 295 108 394 50 599 50 c 0
 847 50 995 141 995 388 c 0
EndSplineSet
EndChar

StartChar: T
Encoding: 84 84 99
Width: 1123
VWidth: 0
GlyphClass: 2
Flags: HMW
PickledData: "(dp1
S'org.pippin.gimp.org.kernagic'
p2
(dp3
S'lstem'
p4
I285
sS'rstem'
p5
I844
ssS'com.typemytype.robofont.layerData'
p6
(dp7
sS'org.robofab.postScriptHintData'
p8
(dp9
s."
AnchorPoint: "top" 562 1455 basechar 0
LayerCount: 2
Fore
SplineSet
53 1455 m 1
 1070 1455 l 1
 1070 1396 l 1
 604 1396 l 1
 604 0 l 1
 512 0 l 1
 512 1396 l 1
 53 1396 l 1
 53 1455 l 1
EndSplineSet
EndChar

StartChar: Thorn
Encoding: 222 222 104
Width: 1196
VWidth: 0
GlyphClass: 2
Flags: HMW
PickledData: "(dp1
S'org.pippin.gimp.org.kernagic'
p2
(dp3
S'lstem'
p4
I0
sS'rstem'
p5
I0
ssS'com.typemytype.robofont.layerData'
p6
(dp7
S'b'
(dp8
S'name'
p9
S'Thorn'
p10
sS'lib'
p11
(dp12
sS'unicodes'
p13
(tsS'width'
p14
I1192
sS'contours'
p15
(tsS'components'
p16
(tsS'anchors'
p17
(tsssS'org.robofab.postScriptHintData'
p18
(dp19
s."
LayerCount: 2
Fore
SplineSet
221 0 m 1
 221 1456 l 1
 313 1456 l 1
 313 1151 l 1
 670 1151 l 2
 913 1151 1088 1046 1088 809 c 0
 1088 555 956 430 664 430 c 2
 313 430 l 1
 313 0 l 1
 221 0 l 1
313 1080 m 1
 313 498 l 1
 677 498 l 2
 890 498 995 567 995 812 c 0
 995 1019 854 1080 667 1080 c 2
 313 1080 l 1
EndSplineSet
EndChar

StartChar: U
Encoding: 85 85 105
Width: 1453
VWidth: 0
GlyphClass: 2
Flags: HMW
PickledData: "(dp1
S'org.pippin.gimp.org.kernagic'
p2
(dp3
S'lstem'
p4
I0
sS'rstem'
p5
I0
ssS'com.typemytype.robofont.layerData'
p6
(dp7
sS'org.robofab.postScriptHintData'
p8
(dp9
s."
AnchorPoint: "top" 727 1455 basechar 0
LayerCount: 2
Fore
SplineSet
1186 1455 m 1
 1279 1455 l 1
 1279 539 l 2
 1279 234 1125 -19 727 -19 c 0
 325 -19 174 224 174 543 c 2
 174 1455 l 1
 267 1455 l 1
 267 535 l 2
 267 223 397 50 727 50 c 0
 1039 50 1186 222 1186 534 c 2
 1186 1455 l 1
EndSplineSet
EndChar

StartChar: V
Encoding: 86 86 116
Width: 1341
VWidth: 0
GlyphClass: 2
Flags: HMW
PickledData: "(dp1
S'org.pippin.gimp.org.kernagic'
p2
(dp3
S'lstem'
p4
I0
sS'rstem'
p5
I0
ssS'com.typemytype.robofont.layerData'
p6
(dp7
sS'org.robofab.postScriptHintData'
p8
(dp9
s."
LayerCount: 2
Fore
SplineSet
656 0 m 1
 74 1455 l 1
 163 1455 l 1
 331 1018 491 573 669 146 c 1
 846 575 1009 1018 1179 1455 c 1
 1268 1455 l 1
 686 0 l 1
 656 0 l 1
EndSplineSet
EndChar

StartChar: W
Encoding: 87 87 117
Width: 2083
VWidth: 0
GlyphClass: 2
Flags: HMW
PickledData: "(dp1
S'org.pippin.gimp.org.kernagic'
p2
(dp3
S'lstem'
p4
I0
sS'rstem'
p5
I0
ssS'com.typemytype.robofont.layerData'
p6
(dp7
sS'org.robofab.postScriptHintData'
p8
(dp9
s."
AnchorPoint: "top" 1042 1455 basechar 0
LayerCount: 2
Fore
SplineSet
1046 1330 m 1
 631 0 l 1
 539 0 l 1
 67 1454 l 1
 149 1454 l 1
 584 101 l 1
 992 1406 l 1
 1022 1406 l 1
 1020 1412 l 1
 1071 1412 l 1
 1069 1406 l 1
 1095 1406 l 1
 1512 104 l 1
 1929 1454 l 1
 2016 1454 l 1
 1557 0 l 1
 1462 0 l 1
 1046 1330 l 1
EndSplineSet
EndChar

StartChar: X
Encoding: 88 88 122
Width: 1306
VWidth: 0
GlyphClass: 2
Flags: HMW
PickledData: "(dp1
S'org.pippin.gimp.org.kernagic'
p2
(dp3
S'lstem'
p4
I0
sS'rstem'
p5
I0
ssS'com.typemytype.robofont.layerData'
p6
(dp7
sS'org.robofab.postScriptHintData'
p8
(dp9
s."
LayerCount: 2
Fore
SplineSet
697 722 m 1
 1169 0 l 1
 1086 0 l 1
 650 664 l 1
 208 0 l 1
 114 0 l 1
 607 729 l 1
 130 1455 l 1
 217 1455 l 1
 656 785 l 1
 1081 1455 l 1
 1172 1455 l 1
 697 722 l 1
EndSplineSet
EndChar

StartChar: Y
Encoding: 89 89 123
Width: 1208
VWidth: 0
GlyphClass: 2
Flags: HMW
PickledData: "(dp1
S'org.pippin.gimp.org.kernagic'
p2
(dp3
S'lstem'
p4
I0
sS'rstem'
p5
I0
ssS'com.typemytype.robofont.layerData'
p6
(dp7
sS'org.robofab.postScriptHintData'
p8
(dp9
s."
AnchorPoint: "top" 604 1455 basechar 0
LayerCount: 2
Fore
SplineSet
669 615 m 1
 669 0 l 1
 583 0 l 1
 583 613 l 1
 66 1455 l 1
 144 1455 l 1
 625 686 l 1
 1061 1455 l 1
 1142 1455 l 1
 669 615 l 1
EndSplineSet
EndChar

StartChar: Z
Encoding: 90 90 128
Width: 1202
VWidth: 0
GlyphClass: 2
Flags: HMW
PickledData: "(dp1
S'org.pippin.gimp.org.kernagic'
p2
(dp3
S'lstem'
p4
I0
sS'rstem'
p5
I0
ssS'com.typemytype.robofont.layerData'
p6
(dp7
sS'org.robofab.postScriptHintData'
p8
(dp9
s."
AnchorPoint: "top" 662 1455 basechar 0
LayerCount: 2
Fore
SplineSet
144 0 m 1
 144 85 l 1
 993 1384 l 1
 193 1384 l 1
 193 1455 l 1
 1069 1455 l 1
 1081 1386 l 1
 220 69 l 1
 1087 69 l 1
 1075 0 l 1
 144 0 l 1
EndSplineSet
EndChar

StartChar: a
Encoding: 97 97 132
Width: 1116
VWidth: 0
GlyphClass: 2
Flags: HMW
PickledData: "(dp1
S'org.pippin.gimp.org.kernagic'
p2
(dp3
S'lstem'
p4
I0
sS'rstem'
p5
I0
ssS'com.fontlab.hintData'
p6
(dp7
S'vhints'
p8
((dp9
S'position'
p10
I126
sS'width'
p11
I120
s(dp12
g10
I842
sg11
I32
s(dp13
g10
I875
sg11
I86
stp14
sS'hhints'
p15
((dp16
g10
I-15
sg11
I92
s(dp17
g10
I535
sg11
I82
s(dp18
g10
I983
sg11
I92
stp19
ssS'com.typemytype.robofont.guides'
p20
(tsS'com.typemytype.robofont.layerData'
p21
(dp22
sS'org.robofab.postScriptHintData'
p23
(dp24
s."
AnchorPoint: "top" 542 1082 basechar 0
LayerCount: 2
Fore
SplineSet
450 59 m 0
 586 59 715 92 840 262 c 1
 840 541 l 1
 649 543 l 1
 632 543 l 2
 279 543 217 448 217 277 c 0
 217 127 325 59 450 59 c 0
840 607 m 1
 840 752 l 2
 840 932 740 1030 547 1030 c 0
 436 1030 311 1000 218 944 c 1
 181 1015 l 1
 258 1060 420 1102 542 1102 c 0
 779 1102 936 1012 936 733 c 2
 936 1 l 1
 866 1 l 1
 850 180 l 1
 716 7 567 -14 445 -14 c 0
 251 -14 118 95 118 276 c 0
 118 494 257 610 621 610 c 2
 640 610 l 1
 840 607 l 1
EndSplineSet
EndChar

StartChar: acute
Encoding: 180 180 136
Width: 679
VWidth: 0
GlyphClass: 4
Flags: HMW
PickledData: "(dp1
S'org.robofab.postScriptHintData'
p2
(dp3
sS'com.typemytype.robofont.layerData'
p4
(dp5
s."
AnchorPoint: "top" 233 1082 mark 0
LayerCount: 2
Fore
SplineSet
204 1210 m 1
 418 1561 l 1
 523 1561 l 1
 258 1210 l 1
 204 1210 l 1
EndSplineSet
EndChar

StartChar: ae
Encoding: 230 230 138
Width: 1806
VWidth: 0
GlyphClass: 2
Flags: HMW
PickledData: "(dp1
S'org.pippin.gimp.org.kernagic'
p2
(dp3
S'lstem'
p4
I0
sS'rstem'
p5
I0
ssS'com.typemytype.robofont.layerData'
p6
(dp7
sS'com.fontlab.hintData'
p8
(dp9
S'vhints'
p10
((dp11
S'position'
p12
I126
sS'width'
p13
I119
s(dp14
g12
I817
sg13
I117
s(dp15
g12
I817
sg13
I82
s(dp16
g12
I1556
sg13
I98
stp17
sS'hhints'
p18
((dp19
g12
I-14
sg13
I98
s(dp20
g12
I518
sg13
I82
s(dp21
g12
I983
sg13
I92
stp22
ssS'org.robofab.postScriptHintData'
p23
(dp24
s."
AnchorPoint: "top" 926 1082 basechar 0
LayerCount: 2
Fore
SplineSet
929 600 m 1
 946 600 l 2
 1391 600 1581 639 1581 803 c 0
 1581 908 1489 1024 1297 1024 c 0
 1070 1024 951 823 929 600 c 1
466 71 m 0
 612 71 792 150 878 264 c 1
 844 347 833 458 833 541 c 1
 652 541 l 2
 311 541 229 466 229 311 c 0
 229 140 333 71 466 71 c 0
1306 -19 m 0
 1135 -19 997 56 918 190 c 1
 831 74 621 -13 451 -13 c 0
 283 -13 129 61 129 293 c 0
 129 497 264 607 622 607 c 0
 626 607 828 606 834 606 c 1
 834 754 l 2
 834 926 763 1030 574 1030 c 2
 571 1030 l 2
 464 1030 329 1004 225 946 c 1
 189 1017 l 1
 276 1064 423 1102 540 1102 c 0
 743 1102 899 1021 906 799 c 1
 938 1000 1126 1101 1296 1101 c 0
 1533 1101 1663 962 1663 816 c 0
 1663 577 1488 538 946 538 c 2
 925 538 l 1
 935 197 1102 56 1320 56 c 2
 1322 56 l 2
 1425 56 1497 69 1631 134 c 1
 1662 71 l 1
 1559 18 1455 -19 1306 -19 c 0
EndSplineSet
EndChar

StartChar: ampersand
Encoding: 38 38 143
Width: 1493
VWidth: 0
GlyphClass: 2
Flags: HMW
PickledData: "(dp1
S'org.pippin.gimp.org.kernagic'
p2
(dp3
S'lstem'
p4
I0
sS'rstem'
p5
I0
ssS'com.typemytype.robofont.layerData'
p6
(dp7
sS'com.fontlab.hintData'
p8
(dp9
S'vhints'
p10
((dp11
S'position'
p12
I135
sS'width'
p13
I121
s(dp14
g12
I312
sg13
I105
s(dp15
g12
I917
sg13
I110
stp16
sS'hhints'
p17
((dp18
g12
I-19
sg13
I96
s(dp19
g12
I1372
sg13
I96
stp20
ssS'org.robofab.postScriptHintData'
p21
(dp22
s."
LayerCount: 2
Fore
SplineSet
582 833 m 1
 762 914 944 1020 944 1178 c 0
 944 1317 845 1410 693 1410 c 0
 511 1410 389 1318 389 1179 c 0
 389 1064 421 1008 582 833 c 1
1270 -26 m 1
 1121 139 l 1
 1003 43 857 -19 699 -19 c 0
 375 -19 202 111 202 359 c 0
 202 529 308 682 511 805 c 1
 377 962 318 1045 318 1176 c 0
 318 1355 470 1474 696 1474 c 0
 886 1474 1015 1351 1015 1167 c 0
 1015 1005 850 879 629 786 c 1
 1126 238 l 1
 1210 320 1279 420 1324 524 c 1
 1377 485 l 1
 1333 377 1263 272 1173 186 c 1
 1323 21 l 1
 1270 -26 l 1
1074 191 m 1
 566 753 l 1
 385 647 291 515 291 367 c 0
 291 156 436 47 713 47 c 0
 842 47 967 104 1074 191 c 1
EndSplineSet
EndChar

StartChar: apostrophemod
Encoding: 700 700 145
Width: 640
VWidth: 0
GlyphClass: 2
Flags: HMW
PickledData: "(dp1
S'org.robofab.postScriptHintData'
p2
(dp3
sS'com.typemytype.robofont.layerData'
p4
(dp5
s."
LayerCount: 2
Fore
SplineSet
172 1209 m 1
 172 1209 248 1615 248 1616 c 2
 349 1616 l 2
 348 1614 225 1209 225 1209 c 1
 172 1209 l 1
EndSplineSet
EndChar

StartChar: approxequal
Encoding: 8776 8776 146
Width: 1297
VWidth: 0
GlyphClass: 2
Flags: HMW
PickledData: "(dp1
S'org.pippin.gimp.org.kernagic'
p2
(dp3
S'lstem'
p4
I0
sS'rstem'
p5
I0
ssS'com.typemytype.robofont.layerData'
p6
(dp7
S'b'
(dp8
S'name'
p9
S'approxequal'
p10
sS'lib'
p11
(dp12
sS'unicodes'
p13
(tsS'width'
p14
I1136
sS'contours'
p15
(tsS'components'
p16
(tsS'anchors'
p17
(tsssS'org.robofab.postScriptHintData'
p18
(dp19
s."
LayerCount: 2
Fore
SplineSet
949 520 m 0
 1029 520 1079 568 1083 693 c 1
 1128 677 l 1
 1121 533 1058 475 954 475 c 0
 869 475 758 515 629 580 c 0
 543 621 458 655 386 655 c 0
 304 655 239 610 216 480 c 1
 169 497 l 1
 200 646 277 702 382 702 c 0
 468 702 571 662 685 607 c 0
 789 556 880 520 949 520 c 0
949 889 m 0
 1029 889 1079 937 1083 1062 c 1
 1128 1046 l 1
 1121 902 1058 844 954 844 c 0
 869 844 758 884 629 949 c 0
 543 990 458 1024 386 1024 c 0
 304 1024 239 979 216 849 c 1
 169 866 l 1
 200 1015 277 1071 382 1071 c 0
 468 1071 571 1031 685 976 c 0
 789 925 880 889 949 889 c 0
EndSplineSet
EndChar

StartChar: asciicircum
Encoding: 94 94 149
Width: 1249
VWidth: 0
GlyphClass: 2
Flags: HMW
PickledData: "(dp1
S'org.pippin.gimp.org.kernagic'
p2
(dp3
S'lstem'
p4
I0
sS'rstem'
p5
I0
ssS'com.typemytype.robofont.layerData'
p6
(dp7
sS'org.robofab.postScriptHintData'
p8
(dp9
s."
LayerCount: 2
Fore
SplineSet
582 1456 m 1
 646 1456 l 1
 1091 361 l 1
 1021 361 l 1
 617 1386 l 1
 224 361 l 1
 158 361 l 1
 582 1456 l 1
EndSplineSet
EndChar

StartChar: asciitilde
Encoding: 126 126 150
Width: 1216
VWidth: 0
GlyphClass: 2
Flags: HMW
PickledData: "(dp1
S'org.pippin.gimp.org.kernagic'
p2
(dp3
S'lstem'
p4
I0
sS'rstem'
p5
I0
ssS'com.typemytype.robofont.layerData'
p6
(dp7
S'b'
(dp8
S'name'
p9
S'asciitilde'
p10
sS'lib'
p11
(dp12
sS'unicodes'
p13
(tsS'width'
p14
I1192
sS'contours'
p15
(tsS'components'
p16
(tsS'anchors'
p17
(tsssS'org.robofab.postScriptHintData'
p18
(dp19
s."
LayerCount: 2
Fore
SplineSet
104 516 m 1
 93 575 l 1
 136 688 225 770 341 770 c 0
 419 770 458 751 570 701 c 0
 673 658 764 608 829 608 c 0
 918 608 1009 704 1020 785 c 1
 1044 736 l 1
 997 597 948 532 836 532 c 0
 782 532 707 559 631 593 c 0
 503 649 414 691 342 691 c 0
 249 691 155 614 104 516 c 1
EndSplineSet
EndChar

StartChar: asterisk
Encoding: 42 42 151
Width: 1202
VWidth: 0
GlyphClass: 2
Flags: HMW
PickledData: "(dp1
S'org.pippin.gimp.org.kernagic'
p2
(dp3
S'lstem'
p4
I0
sS'rstem'
p5
I0
ssS'com.typemytype.robofont.layerData'
p6
(dp7
sS'org.robofab.postScriptHintData'
p8
(dp9
s."
LayerCount: 2
Fore
SplineSet
383 604 m 1
 298 669 l 1
 552 1031 l 1
 173 1121 l 1
 200 1227 l 1
 577 1066 l 1
 539 1499 l 1
 663 1499 l 1
 622 1066 l 1
 1001 1227 l 1
 1031 1121 l 1
 643 1031 l 1
 682 974 746 882 908 669 c 1
 869 645 862 639 862 638 c 0
 862 637 865 638 865 637 c 0
 865 636 858 630 819 605 c 1
 594 1003 l 1
 383 604 l 1
EndSplineSet
EndChar

StartChar: at
Encoding: 64 64 152
Width: 2133
VWidth: 0
GlyphClass: 2
Flags: HMW
PickledData: "(dp1
S'org.pippin.gimp.org.kernagic'
p2
(dp3
S'lstem'
p4
I0
sS'rstem'
p5
I0
ssS'com.typemytype.robofont.layerData'
p6
(dp7
sS'org.robofab.postScriptHintData'
p8
(dp9
s."
LayerCount: 2
Fore
SplineSet
979 259 m 0
 1143 259 1230 467 1267 681 c 2
 1322 994 l 1
 1261 1008 1170 1024 1132 1024 c 0
 913 1024 763 845 763 563 c 0
 764 347 853 259 979 259 c 0
1041 -254 m 0
 531 -254 209 57 209 589 c 0
 209 1121 582 1511 1113 1511 c 0
 1569 1511 1905 1220 1905 746 c 0
 1905 388 1710 211 1526 211 c 1
 1463 285 1309 275 1290 489 c 1
 1234 306 1122 184 965 184 c 0
 781 184 663 316 663 559 c 0
 663 858 828 1091 1123 1091 c 0
 1227 1091 1330 1061 1422 1032 c 1
 1369 730 1358 623 1358 489 c 0
 1358 378 1404 273 1526 273 c 0
 1706 273 1823 501 1823 746 c 0
 1823 1164 1521 1436 1112 1436 c 0
 667 1436 303 1092 303 591 c 0
 303 82 627 -182 1046 -182 c 0
 1224 -182 1396 -137 1539 -50 c 1
 1569 -110 l 1
 1429 -204 1247 -254 1041 -254 c 0
EndSplineSet
EndChar

StartChar: b
Encoding: 98 98 154
Width: 1239
VWidth: 0
GlyphClass: 2
Flags: HMW
PickledData: "(dp1
S'org.pippin.gimp.org.kernagic'
p2
(dp3
S'lstem'
p4
I0
sS'rstem'
p5
I0
ssS'com.fontlab.hintData'
p6
(dp7
S'vhints'
p8
((dp9
S'position'
p10
I193
sS'width'
p11
I125
s(dp12
g10
I193
sg11
I94
s(dp13
g10
I1018
sg11
I122
stp14
sS'hhints'
p15
((dp16
g10
I-19
sg11
I92
s(dp17
g10
I982
sg11
I92
stp18
ssS'com.typemytype.robofont.guides'
p19
(tsS'com.typemytype.robofont.layerData'
p20
(dp21
sS'org.robofab.postScriptHintData'
p22
(dp23
s."
AnchorPoint: "top" 680 1082 basechar 0
LayerCount: 2
Fore
SplineSet
650 50 m 0
 915 50 1022 267 1022 536 c 0
 1022 804 935 1032 655 1032 c 0
 442 1032 280 850 282 586 c 2
 282 294 l 1
 334 167 438 50 650 50 c 0
650 -20 m 0
 444 -20 326 79 264 185 c 1
 254 0 l 1
 187 0 l 1
 187 1540 l 1
 284 1560 l 1
 284 864 l 1
 359 1009 495 1102 661 1102 c 0
 960 1102 1120 887 1120 533 c 0
 1120 207 953 -20 650 -20 c 0
EndSplineSet
EndChar

StartChar: backslash
Encoding: 92 92 155
Width: 979
VWidth: 0
GlyphClass: 2
Flags: HMW
PickledData: "(dp1
S'org.pippin.gimp.org.kernagic'
p2
(dp3
S'lstem'
p4
I0
sS'rstem'
p5
I0
ssS'com.typemytype.robofont.layerData'
p6
(dp7
S'b'
(dp8
S'name'
p9
S'backslash'
p10
sS'lib'
p11
(dp12
sS'unicodes'
p13
(tsS'width'
p14
I937
sS'contours'
p15
(tsS'components'
p16
(tsS'anchors'
p17
(tsssS'org.robofab.postScriptHintData'
p18
(dp19
s."
LayerCount: 2
Fore
SplineSet
736 -71 m 1
 140 1458 l 1
 197 1458 l 1
 795 -71 l 1
 736 -71 l 1
EndSplineSet
EndChar

StartChar: bar
Encoding: 124 124 156
Width: 187
VWidth: 0
GlyphClass: 2
Flags: HMW
PickledData: "(dp1
S'org.pippin.gimp.org.kernagic'
p2
(dp3
S'lstem'
p4
I0
sS'rstem'
p5
I0
ssS'com.typemytype.robofont.layerData'
p6
(dp7
S'b'
(dp8
S'name'
p9
S'bar'
p10
sS'lib'
p11
(dp12
sS'unicodes'
p13
(tsS'width'
p14
I681
sS'contours'
p15
(tsS'components'
p16
(tsS'anchors'
p17
(tsssS'org.robofab.postScriptHintData'
p18
(dp19
s."
LayerCount: 2
Fore
SplineSet
48 1563 m 1
 116 1563 l 1
 116 -432 l 1
 48 -432 l 1
 48 1563 l 1
EndSplineSet
EndChar

StartChar: braceleft
Encoding: 123 123 157
Width: 829
VWidth: 0
GlyphClass: 2
Flags: HMW
PickledData: "(dp1
S'org.pippin.gimp.org.kernagic'
p2
(dp3
S'lstem'
p4
I0
sS'rstem'
p5
I0
ssS'com.typemytype.robofont.layerData'
p6
(dp7
sS'org.robofab.postScriptHintData'
p8
(dp9
s."
LayerCount: 2
Fore
SplineSet
626 -285 m 1
 401 -285 341 -188 341 28 c 2
 341 269 l 2
 341 461 334 582 127 586 c 1
 127 632 l 1
 334 636 341 757 341 949 c 2
 341 1190 l 2
 341 1406 408 1503 633 1503 c 1
 633 1447 l 1
 481 1445 425 1387 425 1188 c 2
 425 902 l 2
 425 726 402 629 247 609 c 1
 402 589 425 492 425 316 c 2
 425 30 l 2
 425 -169 474 -227 626 -229 c 1
 626 -285 l 1
EndSplineSet
EndChar

StartChar: braceright
Encoding: 125 125 158
Width: 829
VWidth: 0
GlyphClass: 2
Flags: HMW
PickledData: "(dp1
S'org.pippin.gimp.org.kernagic'
p2
(dp3
S'lstem'
p4
I0
sS'rstem'
p5
I0
ssS'com.typemytype.robofont.layerData'
p6
(dp7
sS'org.robofab.postScriptHintData'
p8
(dp9
s."
LayerCount: 2
Fore
SplineSet
129 -285 m 1
 129 -229 l 1
 281 -227 330 -169 330 30 c 2
 330 316 l 2
 330 492 354 589 509 609 c 1
 354 629 330 726 330 902 c 2
 330 1188 l 2
 330 1387 274 1445 122 1447 c 1
 122 1503 l 1
 347 1503 414 1406 414 1190 c 2
 414 949 l 2
 414 757 422 636 628 632 c 1
 628 586 l 1
 422 582 414 461 414 269 c 2
 414 28 l 2
 414 -188 355 -285 129 -285 c 1
EndSplineSet
EndChar

StartChar: bracketleft
Encoding: 91 91 159
Width: 632
VWidth: 0
GlyphClass: 2
Flags: HMW
PickledData: "(dp1
S'org.pippin.gimp.org.kernagic'
p2
(dp3
S'lstem'
p4
I0
sS'rstem'
p5
I0
ssS'com.typemytype.robofont.layerData'
p6
(dp7
sS'org.robofab.postScriptHintData'
p8
(dp9
s."
LayerCount: 2
Fore
SplineSet
182 -225 m 1
 182 1558 l 1
 607 1558 l 1
 607 1489 l 1
 269 1489 l 1
 269 -158 l 1
 607 -158 l 1
 607 -225 l 1
 182 -225 l 1
EndSplineSet
EndChar

StartChar: bracketright
Encoding: 93 93 160
Width: 646
VWidth: 0
GlyphClass: 2
Flags: HMW
PickledData: "(dp1
S'org.pippin.gimp.org.kernagic'
p2
(dp3
S'lstem'
p4
I0
sS'rstem'
p5
I0
ssS'com.typemytype.robofont.layerData'
p6
(dp7
sS'org.robofab.postScriptHintData'
p8
(dp9
s."
LayerCount: 2
Fore
SplineSet
66 -225 m 1
 66 -157 l 1
 402 -157 l 1
 402 1489 l 1
 66 1489 l 1
 66 1558 l 1
 489 1558 l 1
 489 -225 l 1
 66 -225 l 1
EndSplineSet
EndChar

StartChar: breve
Encoding: 728 728 161
Width: 821
VWidth: 0
GlyphClass: 4
Flags: HMW
PickledData: "(dp1
S'org.robofab.postScriptHintData'
p2
(dp3
sS'com.typemytype.robofont.layerData'
p4
(dp5
s."
AnchorPoint: "top" 410 1053 mark 0
LayerCount: 2
Fore
SplineSet
403 1259 m 0
 303 1259 206 1315 206 1476 c 1
 261 1476 l 1
 261 1356 342 1310 403 1310 c 0
 466 1310 555 1356 555 1476 c 1
 607 1476 l 1
 607 1316 506 1259 403 1259 c 0
EndSplineSet
EndChar

StartChar: breveinvertedcomb
Encoding: 785 785 162
Width: 733
VWidth: 0
GlyphClass: 4
Flags: HMW
PickledData: "(dp1
S'org.robofab.postScriptHintData'
p2
(dp3
sS'com.typemytype.robofont.layerData'
p4
(dp5
s."
AnchorPoint: "top" 381 1053 mark 0
LayerCount: 2
Fore
SplineSet
177 1259 m 1
 177 1420 274 1476 374 1476 c 0
 477 1476 578 1419 578 1259 c 1
 526 1259 l 1
 526 1379 436 1425 374 1425 c 0
 313 1425 231 1379 231 1259 c 1
 177 1259 l 1
EndSplineSet
EndChar

StartChar: brokenbar
Encoding: 166 166 163
Width: 105
VWidth: 0
GlyphClass: 2
Flags: HMW
PickledData: "(dp1
S'org.pippin.gimp.org.kernagic'
p2
(dp3
S'lstem'
p4
I0
sS'rstem'
p5
I0
ssS'com.typemytype.robofont.layerData'
p6
(dp7
S'b'
(dp8
S'name'
p9
S'brokenbar'
p10
sS'lib'
p11
(dp12
sS'unicodes'
p13
(tsS'width'
p14
I653
sS'contours'
p15
(tsS'components'
p16
(tsS'anchors'
p17
(tsssS'org.robofab.postScriptHintData'
p18
(dp19
s."
LayerCount: 2
Fore
SplineSet
10 1454 m 1
 77 1454 l 1
 77 787 l 1
 10 787 l 1
 10 1454 l 1
10 541 m 1
 77 541 l 1
 77 -129 l 1
 10 -129 l 1
 10 541 l 1
EndSplineSet
EndChar

StartChar: bullet
Encoding: 8226 8226 164
Width: 811
VWidth: 0
GlyphClass: 2
Flags: HMW
PickledData: "(dp1
S'org.pippin.gimp.org.kernagic'
p2
(dp3
S'lstem'
p4
I0
sS'rstem'
p5
I0
ssS'com.typemytype.robofont.layerData'
p6
(dp7
S'b'
(dp8
S'name'
p9
S'bullet'
p10
sS'lib'
p11
(dp12
sS'unicodes'
p13
(tsS'width'
p14
I908
sS'contours'
p15
(tsS'components'
p16
(tsS'anchors'
p17
(tsssS'org.robofab.postScriptHintData'
p18
(dp19
s."
LayerCount: 2
Fore
SplineSet
394 464 m 0
 250 464 100 561 100 778 c 0
 100 998 254 1099 401 1099 c 0
 546 1099 698 999 698 781 c 0
 698 563 540 464 394 464 c 0
EndSplineSet
EndChar

StartChar: c
Encoding: 99 99 165
Width: 1086
VWidth: 0
GlyphClass: 2
Flags: HMW
PickledData: "(dp1
S'org.pippin.gimp.org.kernagic'
p2
(dp3
S'lstem'
p4
I0
sS'rstem'
p5
I696
ssS'com.fontlab.hintData'
p6
(dp7
S'vhints'
p8
((dp9
S'position'
p10
I128
sS'width'
p11
I120
stp12
sS'hhints'
p13
((dp14
g10
I-19
sg11
I92
s(dp15
g10
I982
sg11
I92
stp16
ssS'com.typemytype.robofont.guides'
p17
((dp18
S'y'
I417
sS'x'
I962
sS'magnetic'
p19
I5
sS'angle'
p20
F90
sS'isGlobal'
p21
I00
s(dp22
S'y'
I1020
sS'x'
I565
sg19
I5
sg20
F90
sg21
I00
s(dp23
S'y'
I994
sS'x'
I572
sg19
I5
sg20
F90
sg21
I00
stp24
sS'com.typemytype.robofont.layerData'
p25
(dp26
sS'org.robofab.postScriptHintData'
p27
(dp28
s."
AnchorPoint: "top" 612 1082 basechar 0
LayerCount: 2
Fore
SplineSet
907 261 m 1
 926 261 l 1
 978 239 l 1
 939 81 784 -20 593 -20 c 0
 299 -20 120 196 120 541 c 0
 120 886 299 1102 593 1102 c 0
 784 1102 938 1002 978 843 c 1
 923 820 l 1
 907 820 l 1
 870 951 742 1033 593 1033 c 0
 357 1033 218 843 218 541 c 0
 218 239 357 49 593 49 c 0
 741 49 869 131 907 261 c 1
EndSplineSet
EndChar

StartChar: caron
Encoding: 711 711 167
Width: 848
VWidth: 0
GlyphClass: 4
Flags: HMW
PickledData: "(dp1
S'org.robofab.postScriptHintData'
p2
(dp3
sS'com.typemytype.robofont.layerData'
p4
(dp5
s."
AnchorPoint: "top" 423 1082 mark 0
LayerCount: 2
Fore
SplineSet
363 1203 m 1
 179 1507 l 1
 241 1507 l 1
 413 1260 l 1
 585 1507 l 1
 646 1507 l 1
 463 1203 l 1
 363 1203 l 1
EndSplineSet
EndChar

StartChar: caron.alt
Encoding: 65537 -1 168
Width: 837
VWidth: 0
GlyphClass: 4
Flags: HMW
PickledData: "(dp1
S'org.robofab.postScriptHintData'
p2
(dp3
sS'com.typemytype.robofont.layerData'
p4
(dp5
s."
AnchorPoint: "caron.alt" 380 1082 mark 0
LayerCount: 2
Fore
SplineSet
564 1194 m 1
 624 1528 l 1
 732 1528 l 1
 641 1194 l 1
 564 1194 l 1
EndSplineSet
EndChar

StartChar: cedilla
Encoding: 184 184 173
Width: 624
VWidth: 0
GlyphClass: 4
Flags: HMW
PickledData: "(dp1
S'org.robofab.postScriptHintData'
p2
(dp3
sS'com.typemytype.robofont.layerData'
p4
(dp5
s."
LayerCount: 2
Fore
SplineSet
460 -199 m 0
 460 -152 439 -86 332 -86 c 0
 311 -86 287 -88 259 -94 c 1
 258 -60 l 1
 288 -49 320 -43 351 -43 c 0
 442 -43 523 -92 523 -199 c 0
 523 -312 420 -387 275 -387 c 0
 220 -387 170 -376 127 -356 c 1
 148 -305 l 1
 186 -327 234 -339 282 -339 c 0
 371 -339 460 -297 460 -199 c 0
EndSplineSet
EndChar

StartChar: cent
Encoding: 162 162 174
Width: 1019
VWidth: 0
GlyphClass: 2
Flags: HMW
PickledData: "(dp1
S'org.pippin.gimp.org.kernagic'
p2
(dp3
S'lstem'
p4
I0
sS'rstem'
p5
I0
ssS'com.typemytype.robofont.layerData'
p6
(dp7
sS'org.robofab.postScriptHintData'
p8
(dp9
s."
LayerCount: 2
Fore
SplineSet
545 16 m 1
 628 16 l 1
 626 -288 l 1
 545 -288 l 1
 545 16 l 1
546 1372 m 1
 627 1372 l 1
 627 1063 l 1
 545 1063 l 1
 546 1372 l 1
EndSplineSet
Refer: 165 99 N 1 0 0 1 0 0 2
EndChar

StartChar: circumflex
Encoding: 710 710 175
Width: 847
VWidth: 0
GlyphClass: 4
Flags: HMW
PickledData: "(dp1
S'org.robofab.postScriptHintData'
p2
(dp3
sS'com.typemytype.robofont.layerData'
p4
(dp5
s."
AnchorPoint: "top" 423 1082 mark 0
LayerCount: 2
Fore
SplineSet
179 1203 m 1
 363 1507 l 1
 463 1507 l 1
 645 1203 l 1
 585 1203 l 1
 413 1450 l 1
 241 1203 l 1
 179 1203 l 1
EndSplineSet
EndChar

StartChar: colon
Encoding: 58 58 176
Width: 478
VWidth: 0
GlyphClass: 2
Flags: HMW
PickledData: "(dp1
S'org.pippin.gimp.org.kernagic'
p2
(dp3
S'lstem'
p4
I0
sS'rstem'
p5
I0
ssS'com.typemytype.robofont.layerData'
p6
(dp7
S'b'
(dp8
S'name'
p9
S'colon'
p10
sS'lib'
p11
(dp12
sS'unicodes'
p13
(tsS'width'
p14
I653
sS'contours'
p15
(tsS'components'
p16
(tsS'anchors'
p17
(tsssS'org.robofab.postScriptHintData'
p18
(dp19
s."
LayerCount: 2
Fore
SplineSet
226 -20 m 0
 160 -20 146 26 146 59 c 0
 146 93 158 138 226 138 c 0
 291 138 304 93 304 59 c 0
 304 25 291 -20 226 -20 c 0
226 896 m 0
 160 896 146 941 146 975 c 0
 146 1008 158 1053 226 1053 c 0
 291 1053 304 1008 304 975 c 0
 304 940 291 896 226 896 c 0
EndSplineSet
EndChar

StartChar: comma
Encoding: 44 44 177
Width: 461
VWidth: 0
GlyphClass: 2
Flags: HMW
PickledData: "(dp1
S'org.pippin.gimp.org.kernagic'
p2
(dp3
S'lstem'
p4
I0
sS'rstem'
p5
I0
ssS'com.typemytype.robofont.layerData'
p6
(dp7
sS'org.robofab.postScriptHintData'
p8
(dp9
s."
LayerCount: 2
Fore
SplineSet
158 -293 m 1
 158 -293 164 74 164 196 c 1
 277 196 l 1
 277 168 l 2
 277 119 197 -293 197 -293 c 1
 158 -293 l 1
EndSplineSet
EndChar

StartChar: commaaccent
Encoding: 806 806 178
Width: 601
VWidth: 0
GlyphClass: 4
Flags: HMW
PickledData: "(dp1
S'org.robofab.postScriptHintData'
p2
(dp3
s."
LayerCount: 2
Fore
SplineSet
251 -497 m 1
 251 -497 266 -287 266 -163 c 1
 352 -163 l 1
 352 -169 l 2
 352 -251 291 -497 291 -497 c 1
 251 -497 l 1
EndSplineSet
EndChar

StartChar: commaturnedabovecomb
Encoding: 786 786 179
Width: 600
VWidth: 0
GlyphClass: 4
Flags: HMW
PickledData: "(dp1
S'org.robofab.postScriptHintData'
p2
(dp3
s."
AnchorPoint: "top" 303 1053 mark 0
LayerCount: 2
Fore
SplineSet
240 1317 m 2
 240 1366 319 1778 319 1778 c 1
 359 1778 l 1
 359 1778 354 1414 354 1290 c 1
 241 1290 l 1
 240 1317 l 2
EndSplineSet
EndChar

StartChar: copyright
Encoding: 169 169 180
Width: 1953
VWidth: 0
GlyphClass: 2
Flags: HMW
PickledData: "(dp1
S'org.pippin.gimp.org.kernagic'
p2
(dp3
S'lstem'
p4
I0
sS'rstem'
p5
I0
ssS'com.typemytype.robofont.layerData'
p6
(dp7
sS'org.robofab.postScriptHintData'
p8
(dp9
s."
LayerCount: 2
Fore
SplineSet
967 -47 m 0
 583 -47 163 193 163 762 c 0
 163 1330 583 1574 968 1574 c 0
 1351 1574 1776 1331 1776 762 c 0
 1776 193 1351 -47 967 -47 c 0
968 14 m 0
 1305 14 1691 235 1691 762 c 0
 1691 1290 1305 1513 968 1513 c 0
 629 1513 248 1291 248 762 c 0
 248 234 628 14 968 14 c 0
1009 225 m 0
 735 225 486 448 486 762 c 0
 486 1071 729 1295 994 1295 c 0
 1090 1295 1193 1263 1293 1193 c 1
 1256 1119 l 1
 1177 1188 1072 1217 996 1217 c 0
 783 1217 590 1029 590 772 c 0
 590 476 782 303 1005 303 c 0
 1094 303 1172 321 1273 382 c 1
 1297 315 l 1
 1200 253 1101 225 1009 225 c 0
EndSplineSet
EndChar

StartChar: currency
Encoding: 164 164 181
Width: 1446
VWidth: 0
GlyphClass: 2
Flags: HMW
PickledData: "(dp1
S'org.pippin.gimp.org.kernagic'
p2
(dp3
S'lstem'
p4
I0
sS'rstem'
p5
I0
ssS'com.typemytype.robofont.layerData'
p6
(dp7
S'b'
(dp8
S'name'
p9
S'currency'
p10
sS'lib'
p11
(dp12
sS'unicodes'
p13
(tsS'width'
p14
I1164
sS'contours'
p15
(tsS'components'
p16
(tsS'anchors'
p17
(tsssS'org.robofab.postScriptHintData'
p18
(dp19
s."
LayerCount: 2
Fore
SplineSet
1051 705 m 0
 1051 894 930 1062 708 1062 c 0
 488 1062 365 896 365 705 c 0
 365 516 488 350 708 350 c 0
 931 350 1051 517 1051 705 c 0
985 1007 m 1
 1171 1182 l 1
 1206 1141 l 1
 1022 966 l 1
 1084 885 1111 796 1111 705 c 0
 1111 606 1082 518 1023 447 c 1
 1205 268 l 1
 1171 228 l 1
 985 403 l 1
 909 337 816 304 708 304 c 0
 602 304 507 338 432 405 c 1
 245 229 l 1
 207 270 l 1
 394 447 l 1
 332 523 304 609 304 705 c 0
 304 801 333 893 394 966 c 1
 206 1145 l 1
 245 1182 l 1
 430 1008 l 1
 507 1077 603 1110 708 1110 c 0
 814 1110 911 1073 985 1007 c 1
EndSplineSet
EndChar

StartChar: d
Encoding: 100 100 182
Width: 1233
VWidth: 0
GlyphClass: 2
Flags: HMW
PickledData: "(dp1
S'org.pippin.gimp.org.kernagic'
p2
(dp3
S'lstem'
p4
I0
sS'rstem'
p5
I0
ssS'com.typemytype.robofont.layerData'
p6
(dp7
sS'com.fontlab.hintData'
p8
(dp9
S'vhints'
p10
((dp11
S'position'
p12
I114
sS'width'
p13
I166
s(dp14
g12
I907
sg13
I161
s(dp15
g12
I930
sg13
I138
stp16
sS'hhints'
p17
((dp18
g12
I-19
sg13
I127
s(dp19
g12
I953
sg13
I127
stp20
ssS'org.robofab.postScriptHintData'
p21
(dp22
s."
AnchorPoint: "caron.alt" 1025 1092 basechar 0
AnchorPoint: "top" 596 1082 basechar 0
LayerCount: 2
Fore
SplineSet
585 50 m 0
 757 50 897 138 952 278 c 1
 952 780 l 1
 887 950 756 1032 598 1032 c 0
 364 1032 218 845 218 547 c 0
 218 242 358 50 585 50 c 0
951 1540 m 1
 1049 1560 l 1
 1049 0 l 1
 972 0 l 1
 963 176 l 1
 893 53 753 -20 585 -20 c 0
 298 -20 120 199 120 548 c 0
 120 888 303 1102 597 1102 c 0
 771 1102 900 1028 959 904 c 1
 951 1180 l 1
 951 1540 l 1
EndSplineSet
EndChar

StartChar: dagger
Encoding: 8224 8224 183
Width: 958
VWidth: 0
GlyphClass: 2
Flags: HMW
PickledData: "(dp1
S'org.pippin.gimp.org.kernagic'
p2
(dp3
S'lstem'
p4
I0
sS'rstem'
p5
I0
ssS'com.typemytype.robofont.layerData'
p6
(dp7
S'b'
(dp8
S'name'
p9
S'dagger'
p10
sS'lib'
p11
(dp12
sS'unicodes'
p13
(tsS'width'
p14
I1050
sS'contours'
p15
(tsS'components'
p16
(tsS'anchors'
p17
(tsssS'org.robofab.postScriptHintData'
p18
(dp19
s."
LayerCount: 2
Fore
SplineSet
437 1454 m 1
 482 1454 l 1
 482 1047 l 1
 763 1047 l 1
 763 1011 l 1
 491 1011 l 1
 491 126 l 1
 437 126 l 1
 437 1011 l 1
 155 1011 l 1
 155 1047 l 1
 437 1047 l 1
 437 1454 l 1
EndSplineSet
EndChar

StartChar: daggerdbl
Encoding: 8225 8225 184
Width: 1055
VWidth: 0
GlyphClass: 2
Flags: HMW
PickledData: "(dp1
S'org.pippin.gimp.org.kernagic'
p2
(dp3
S'lstem'
p4
I0
sS'rstem'
p5
I0
ssS'com.typemytype.robofont.layerData'
p6
(dp7
S'b'
(dp8
S'name'
p9
S'daggerdbl'
p10
sS'lib'
p11
(dp12
sS'unicodes'
p13
(tsS'width'
p14
I1022
sS'contours'
p15
(tsS'components'
p16
(tsS'anchors'
p17
(tsssS'org.robofab.postScriptHintData'
p18
(dp19
s."
LayerCount: 2
Fore
SplineSet
434 1455 m 1
 479 1455 l 1
 479 1049 l 1
 769 1049 l 1
 769 1012 l 1
 486 1012 l 1
 486 545 l 1
 769 545 l 1
 769 507 l 1
 486 507 l 1
 486 150 l 1
 434 150 l 1
 434 507 l 1
 145 507 l 1
 145 545 l 1
 434 545 l 1
 434 1012 l 1
 145 1012 l 1
 145 1049 l 1
 434 1049 l 1
 434 1455 l 1
EndSplineSet
EndChar

StartChar: dblgravecomb
Encoding: 783 783 185
Width: 708
VWidth: 0
GlyphClass: 4
Flags: HMW
PickledData: "(dp1
S'org.robofab.postScriptHintData'
p2
(dp3
sS'com.typemytype.robofont.layerData'
p4
(dp5
s."
AnchorPoint: "top" 404 1053 mark 0
LayerCount: 2
Fore
SplineSet
454 1237 m 1
 324 1540 l 1
 403 1540 l 1
 513 1237 l 1
 454 1237 l 1
256 1237 m 1
 77 1540 l 1
 167 1540 l 1
 318 1237 l 1
 256 1237 l 1
EndSplineSet
EndChar

StartChar: degree
Encoding: 176 176 188
Width: 854
VWidth: 0
GlyphClass: 2
Flags: HMW
PickledData: "(dp1
S'org.pippin.gimp.org.kernagic'
p2
(dp3
S'lstem'
p4
I0
sS'rstem'
p5
I0
ssS'com.typemytype.robofont.layerData'
p6
(dp7
sS'org.robofab.postScriptHintData'
p8
(dp9
s."
LayerCount: 2
Fore
SplineSet
424 926 m 0
 293 926 130 1027 130 1211 c 0
 130 1390 291 1497 424 1497 c 0
 565 1497 724 1390 724 1211 c 0
 724 1037 567 926 424 926 c 0
426 989 m 0
 555 989 652 1086 652 1211 c 0
 652 1340 555 1435 425 1435 c 0
 301 1435 203 1340 203 1211 c 0
 203 1083 298 989 426 989 c 0
EndSplineSet
EndChar

StartChar: dieresis
Encoding: 168 168 189
Width: 794
VWidth: 0
GlyphClass: 4
Flags: HMW
PickledData: "(dp1
S'org.robofab.postScriptHintData'
p2
(dp3
sS'com.typemytype.robofont.layerData'
p4
(dp5
s."
AnchorPoint: "top" 397 1082 mark 0
LayerCount: 2
Fore
SplineSet
566 1350 m 0
 512 1350 502 1386 502 1414 c 0
 502 1440 510 1477 566 1477 c 0
 618 1477 629 1440 629 1414 c 0
 629 1385 618 1350 566 1350 c 0
202 1350 m 0
 149 1350 138 1386 138 1414 c 0
 138 1440 146 1477 202 1477 c 0
 255 1477 265 1440 265 1414 c 0
 265 1386 255 1350 202 1350 c 0
EndSplineSet
EndChar

StartChar: divide
Encoding: 247 247 190
Width: 1032
VWidth: 0
GlyphClass: 2
Flags: HMW
PickledData: "(dp1
S'org.pippin.gimp.org.kernagic'
p2
(dp3
S'lstem'
p4
I0
sS'rstem'
p5
I0
ssS'com.typemytype.robofont.layerData'
p6
(dp7
sS'org.robofab.postScriptHintData'
p8
(dp9
s."
LayerCount: 2
Fore
SplineSet
437 1047 m 1
 572 1047 l 1
 572 896 l 1
 437 896 l 1
 437 1047 l 1
437 191 m 1
 572 191 l 1
 572 41 l 1
 437 41 l 1
 437 191 l 1
57 609 m 1
 950 609 l 1
 950 515 l 1
 57 515 l 1
 57 609 l 1
EndSplineSet
EndChar

StartChar: dollar
Encoding: 36 36 191
Width: 1192
VWidth: 0
GlyphClass: 2
Flags: HMW
PickledData: "(dp1
S'org.pippin.gimp.org.kernagic'
p2
(dp3
S'lstem'
p4
I0
sS'rstem'
p5
I0
ssS'com.typemytype.robofont.layerData'
p6
(dp7
S'b'
(dp8
S'name'
p9
S'dollar'
p10
sS'lib'
p11
(dp12
sS'unicodes'
p13
(tsS'width'
p14
I1221
sS'contours'
p15
(tsS'components'
p16
(tsS'anchors'
p17
(tsssS'org.robofab.postScriptHintData'
p18
(dp19
s."
LayerCount: 2
Fore
SplineSet
586 9 m 1
 652 9 l 1
 651 -334 l 1
 586 -334 l 1
 586 9 l 1
597 1710 m 1
 662 1710 l 1
 662 1444 l 1
 595 1444 l 1
 597 1710 l 1
EndSplineSet
Refer: 93 83 N 1 0 0 1 0 0 2
EndChar

StartChar: dotaccent
Encoding: 729 729 192
Width: 299
VWidth: 0
GlyphClass: 4
Flags: HMW
PickledData: "(dp1
S'org.robofab.postScriptHintData'
p2
(dp3
sS'com.typemytype.robofont.layerData'
p4
(dp5
s."
AnchorPoint: "top" 145 1082 mark 0
LayerCount: 2
Fore
SplineSet
219 1406 m 0
 219 1358 196 1333 146 1333 c 0
 94 1333 72 1358 72 1406 c 0
 72 1453 94 1478 146 1478 c 0
 196 1478 219 1453 219 1406 c 0
EndSplineSet
EndChar

StartChar: dotlessi
Encoding: 305 305 193
Width: 467
VWidth: 0
GlyphClass: 2
Flags: HMW
PickledData: "(dp1
S'org.pippin.gimp.org.kernagic'
p2
(dp3
S'lstem'
p4
I0
sS'rstem'
p5
I0
ssS'com.typemytype.robofont.layerData'
p6
(dp7
sS'org.robofab.postScriptHintData'
p8
(dp9
s."
AnchorPoint: "top" 241 1082 basechar 0
LayerCount: 2
Fore
SplineSet
189 1082 m 1
 286 1082 l 1
 286 0 l 1
 189 0 l 1
 189 1082 l 1
EndSplineSet
EndChar

StartChar: dotlessj
Encoding: 567 567 194
Width: 495
VWidth: 0
GlyphClass: 2
Flags: HMW
PickledData: "(dp1
S'org.pippin.gimp.org.kernagic'
p2
(dp3
S'lstem'
p4
I0
sS'rstem'
p5
I0
ssS'com.typemytype.robofont.layerData'
p6
(dp7
sS'com.fontlab.hintData'
p8
(dp9
S'vhints'
p10
((dp11
S'position'
p12
I111
sS'width'
p13
I142
stp14
sS'hhints'
p15
((dp16
g12
I-479
sg13
I112
stp17
ssS'org.robofab.postScriptHintData'
p18
(dp19
s."
LayerCount: 2
Fore
SplineSet
222 1082 m 1
 319 1082 l 1
 319 -20 l 2
 319 -245 225 -309 80 -310 c 2
 25 -310 l 1
 29 -222 l 1
 66 -221 l 1
 220 -221 222 -150 222 57 c 2
 222 1082 l 1
EndSplineSet
EndChar

StartChar: e
Encoding: 101 101 195
Width: 1118
VWidth: 0
GlyphClass: 2
Flags: HMW
PickledData: "(dp1
S'org.pippin.gimp.org.kernagic'
p2
(dp3
S'lstem'
p4
I0
sS'rstem'
p5
I747
ssS'com.typemytype.robofont.layerData'
p6
(dp7
sS'com.fontlab.hintData'
p8
(dp9
S'hhints'
p10
((dp11
S'position'
p12
I-19
sS'width'
p13
I94
s(dp14
g12
I982
sg13
I92
stp15
ssS'org.robofab.postScriptHintData'
p16
(dp17
s."
AnchorPoint: "top" 579 1082 basechar 0
LayerCount: 2
Fore
SplineSet
217 608 m 1
 917 608 l 1
 910 884 821 1030 610 1030 c 0
 381 1030 240 854 217 608 c 1
606 -20 m 0
 321 -20 120 203 120 537 c 0
 120 902 348 1102 600 1102 c 2
 602 1102 l 2
 852 1102 993 918 993 612 c 0
 993 579 988 546 988 546 c 1
 212 546 l 1
 221 205 401 54 618 54 c 0
 726 54 826 83 926 138 c 1
 937 138 l 1
 970 73 l 1
 870 19 758 -20 606 -20 c 0
EndSplineSet
EndChar

StartChar: eight
Encoding: 56 56 203
Width: 1200
VWidth: 0
GlyphClass: 2
Flags: HMW
PickledData: "(dp1
S'org.pippin.gimp.org.kernagic'
p2
(dp3
S'lstem'
p4
I0
sS'rstem'
p5
I0
ssS'com.typemytype.robofont.layerData'
p6
(dp7
sS'org.robofab.postScriptHintData'
p8
(dp9
s."
LayerCount: 2
Fore
SplineSet
599 792 m 1
 817 838 918 957 918 1130 c 0
 918 1296 795 1397 599 1397 c 0
 406 1397 278 1296 278 1130 c 0
 278 957 385 838 599 792 c 1
599 56 m 0
 854 56 968 147 968 359 c 0
 968 547 811 665 599 706 c 1
 390 665 227 558 227 359 c 0
 227 159 354 56 599 56 c 0
599 -20 m 0
 347 -20 149 97 149 346 c 0
 149 566 268 686 497 752 c 1
 317 796 182 934 182 1123 c 0
 182 1338 340 1476 601 1476 c 0
 859 1476 1015 1338 1015 1123 c 0
 1015 931 892 809 700 755 c 1
 920 703 1051 543 1051 347 c 0
 1051 98 856 -20 599 -20 c 0
EndSplineSet
EndChar

StartChar: emdash
Encoding: 8212 8212 206
Width: 2323
VWidth: 0
GlyphClass: 2
Flags: HMW
PickledData: "(dp1
S'org.robofab.postScriptHintData'
p2
(dp3
sS'com.typemytype.robofont.layerData'
p4
(dp5
s."
LayerCount: 2
Fore
SplineSet
60 578 m 1
 60 644 l 1
 2263 644 l 1
 2263 578 l 1
 60 578 l 1
EndSplineSet
EndChar

StartChar: endash
Encoding: 8211 8211 207
Width: 1326
VWidth: 0
GlyphClass: 2
Flags: HMW
PickledData: "(dp1
S'org.pippin.gimp.org.kernagic'
p2
(dp3
S'lstem'
p4
I0
sS'rstem'
p5
I0
ssS'com.typemytype.robofont.layerData'
p6
(dp7
sS'org.robofab.postScriptHintData'
p8
(dp9
s."
LayerCount: 2
Fore
SplineSet
165 578 m 1
 165 670 l 1
 1161 670 l 1
 1161 578 l 1
 165 578 l 1
EndSplineSet
EndChar

StartChar: eng
Encoding: 331 331 208
Width: 1169
VWidth: 0
GlyphClass: 2
Flags: HMW
PickledData: "(dp1
S'org.robofab.postScriptHintData'
p2
(dp3
sS'com.typemytype.robofont.layerData'
p4
(dp5
s."
LayerCount: 2
Fore
SplineSet
187 0 m 1
 187 1082 l 1
 267 1082 l 1
 280 898 l 1
 337 1019 450 1102 644 1102 c 0
 885 1102 990 966 990 661 c 2
 990 -20 l 2
 990 -254 944 -394 528 -394 c 1
 516 -327 l 1
 850 -327 892 -248 892 2 c 2
 892 711 l 1
 893 906 836 1032 641 1032 c 0
 352 1032 284 840 284 670 c 2
 284 0 l 1
 187 0 l 1
EndSplineSet
EndChar

StartChar: equal
Encoding: 61 61 210
Width: 1060
VWidth: 0
GlyphClass: 2
Flags: HMW
PickledData: "(dp1
S'org.pippin.gimp.org.kernagic'
p2
(dp3
S'lstem'
p4
I0
sS'rstem'
p5
I0
ssS'com.typemytype.robofont.layerData'
p6
(dp7
S'b'
(dp8
S'name'
p9
S'equal'
p10
sS'lib'
p11
(dp12
sS'unicodes'
p13
(tsS'width'
p14
I1050
sS'contours'
p15
(tsS'components'
p16
(tsS'anchors'
p17
(tsssS'org.robofab.postScriptHintData'
p18
(dp19
s."
LayerCount: 2
Fore
SplineSet
132 556 m 1
 929 556 l 1
 929 484 l 1
 132 484 l 1
 132 556 l 1
132 939 m 1
 929 939 l 1
 929 867 l 1
 132 867 l 1
 132 939 l 1
EndSplineSet
EndChar

StartChar: estimated
Encoding: 8494 8494 211
Width: 647
VWidth: 0
GlyphClass: 2
Flags: HMW
PickledData: "(dp1
S'org.robofab.postScriptHintData'
p2
(dp3
sS'com.typemytype.robofont.layerData'
p4
(dp5
S'b'
(dp6
S'name'
p7
S'estimated'
p8
sS'lib'
p9
(dp10
sS'unicodes'
p11
(tsS'width'
p12
I1223
sS'contours'
p13
(tsS'components'
p14
(tsS'anchors'
p15
(tsss."
LayerCount: 2
Fore
SplineSet
797 451 m 1
 797 628 689 782 528 782 c 0
 396 782 280 649 269 451 c 1
 797 451 l 1
99 405 m 0
 99 647 276 827 524 827 c 0
 769 827 883 653 883 390 c 1
 267 390 l 1
 268 182 361 37 537 37 c 0
 676 37 762 98 837 178 c 1
 877 139 l 1
 800 50 696 -18 537 -18 c 0
 244 -18 99 163 99 405 c 0
EndSplineSet
EndChar

StartChar: eth
Encoding: 240 240 212
Width: 1355
VWidth: 0
GlyphClass: 2
Flags: HMW
PickledData: "(dp1
S'org.pippin.gimp.org.kernagic'
p2
(dp3
S'lstem'
p4
I0
sS'rstem'
p5
I0
ssS'com.typemytype.robofont.layerData'
p6
(dp7
sS'org.robofab.postScriptHintData'
p8
(dp9
s."
LayerCount: 2
Fore
SplineSet
1052 500 m 0
 1052 691 914 900 656 900 c 0
 418 900 276 713 276 481 c 0
 276 269 394 35 662 35 c 0
 924 35 1052 221 1052 500 c 0
312 1628 m 1
 420 1628 l 1
 608 1444 l 1
 916 1560 l 1
 954 1503 l 1
 662 1398 l 1
 912 1138 1009 998 1068 870 c 0
 1114 774 1143 626 1143 495 c 0
 1143 220 1004 -31 657 -31 c 0
 319 -31 174 234 174 484 c 0
 174 776 382 975 661 975 c 0
 880 975 981 832 1030 773 c 1
 977 913 867 1094 586 1367 c 1
 317 1265 l 1
 281 1323 l 1
 542 1423 l 1
 312 1628 l 1
EndSplineSet
EndChar

StartChar: exclam
Encoding: 33 33 213
Width: 532
VWidth: 0
GlyphClass: 2
Flags: HMW
PickledData: "(dp1
S'org.pippin.gimp.org.kernagic'
p2
(dp3
S'lstem'
p4
I0
sS'rstem'
p5
I0
ssS'com.typemytype.robofont.layerData'
p6
(dp7
sS'org.robofab.postScriptHintData'
p8
(dp9
s."
LayerCount: 2
Fore
SplineSet
267 -17 m 0
 193 -17 178 33 178 71 c 0
 178 109 193 158 267 158 c 0
 343 158 358 109 358 71 c 0
 358 30 343 -17 267 -17 c 0
245 404 m 1
 194 1424 l 1
 194 1480 l 1
 324 1480 l 1
 324 1424 l 1
 277 404 l 1
 245 404 l 1
EndSplineSet
EndChar

StartChar: f
Encoding: 102 102 215
Width: 730
VWidth: 0
GlyphClass: 2
Flags: HMW
PickledData: "(dp1
S'org.pippin.gimp.org.kernagic'
p2
(dp3
S'lstem'
p4
I182
sS'rstem'
p5
I417
ssS'com.typemytype.robofont.layerData'
p6
(dp7
sS'com.fontlab.hintData'
p8
(dp9
S'vhints'
p10
((dp11
S'position'
p12
I269
sS'width'
p13
I166
stp14
sS'hhints'
p15
((dp16
g12
I952
sg13
I89
s(dp17
g12
I1358
sg13
I122
stp18
ssS'org.robofab.postScriptHintData'
p19
(dp20
s."
AnchorPoint: "top" 435 1455 basechar 0
LayerCount: 2
Fore
SplineSet
393 1082 m 1
 647 1082 l 1
 647 1031 l 1
 393 1031 l 1
 393 0 l 1
 295 0 l 1
 295 1031 l 1
 76 1031 l 1
 81 1065 l 1
 295 1081 l 1
 295 1171 l 2
 295 1415 382 1512 555 1512 c 0
 625 1512 679 1500 689 1498 c 1
 685 1438 l 1
 685 1438 621 1447 574 1447 c 0
 460 1447 393 1419 393 1173 c 2
 393 1082 l 1
EndSplineSet
EndChar

StartChar: five
Encoding: 53 53 216
Width: 1200
VWidth: 0
GlyphClass: 2
Flags: HMW
PickledData: "(dp1
S'org.pippin.gimp.org.kernagic'
p2
(dp3
S'lstem'
p4
I0
sS'rstem'
p5
I0
ssS'com.typemytype.robofont.layerData'
p6
(dp7
sS'org.robofab.postScriptHintData'
p8
(dp9
s."
LayerCount: 2
Fore
SplineSet
196 153 m 1
 207 153 l 1
 330 77 441 55 544 55 c 0
 769 55 968 188 968 459 c 0
 968 647 884 824 621 825 c 0
 503 825 386 778 325 712 c 1
 229 718 l 1
 281 1456 l 1
 995 1456 l 1
 986 1383 l 1
 352 1383 l 1
 310 810 l 1
 409 872 489 900 609 900 c 0
 922 900 1065 693 1065 466 c 0
 1065 134 820 -20 552 -20 c 0
 429 -20 299 3 163 90 c 1
 196 153 l 1
EndSplineSet
EndChar

StartChar: florin
Encoding: 402 402 218
Width: 913
VWidth: 0
GlyphClass: 2
Flags: HMW
PickledData: "(dp1
S'org.robofab.postScriptHintData'
p2
(dp3
s."
LayerCount: 2
Fore
SplineSet
474 1164 m 2
 513 1369 595 1458 747 1458 c 0
 860 1458 951 1398 951 1225 c 1
 884 1225 l 1
 884 1343 834 1391 748 1391 c 0
 649 1391 596 1319 566 1156 c 2
 505 819 l 1
 756 819 l 1
 747 762 l 1
 492 762 l 1
 366 151 l 2
 316 -101 241 -198 90 -198 c 0
 51 -198 8 -192 -42 -180 c 1
 -31 -132 l 1
 4 -139 34 -142 60 -142 c 0
 237 -142 244 2 274 152 c 2
 401 762 l 1
 237 762 l 1
 247 819 l 1
 409 819 l 1
 474 1164 l 2
EndSplineSet
EndChar

StartChar: foundryicon
Encoding: 65540 -1 219
Width: 1347
VWidth: 0
GlyphClass: 2
Flags: HMW
PickledData: "(dp1
S'org.robofab.postScriptHintData'
p2
(dp3
s."
LayerCount: 2
Fore
SplineSet
280 2 m 1
 423 461 l 1
 34 755 l 1
 519 755 l 1
 669 1215 l 1
 828 755 l 1
 1313 755 l 1
 922 461 l 1
 1066 2 l 1
 669 278 l 1
 280 2 l 1
485 405 m 1
 591 405 l 1
 591 552 l 1
 761 405 l 1
 867 405 l 1
 867 672 l 1
 761 672 l 1
 761 523 l 1
 591 672 l 1
 485 672 l 1
 485 405 l 1
EndSplineSet
EndChar

StartChar: four
Encoding: 52 52 220
Width: 1200
VWidth: 0
GlyphClass: 2
Flags: HMW
PickledData: "(dp1
S'org.pippin.gimp.org.kernagic'
p2
(dp3
S'lstem'
p4
I0
sS'rstem'
p5
I0
ssS'com.typemytype.robofont.layerData'
p6
(dp7
sS'org.robofab.postScriptHintData'
p8
(dp9
s."
LayerCount: 2
Fore
SplineSet
225 480 m 1
 826 480 l 1
 826 1311 l 1
 225 480 l 1
828 0 m 1
 828 407 l 1
 134 407 l 1
 131 515 l 1
 850 1456 l 1
 913 1456 l 1
 914 477 l 1
 1098 477 l 1
 1088 407 l 1
 914 407 l 1
 914 0 l 1
 828 0 l 1
EndSplineSet
EndChar

StartChar: fraction
Encoding: 8260 8260 221
Width: 1201
VWidth: 0
GlyphClass: 2
Flags: HMW
PickledData: "(dp1
S'org.robofab.postScriptHintData'
p2
(dp3
s."
LayerCount: 2
Fore
SplineSet
194 0 m 1
 916 1573 l 1
 994 1573 l 1
 283 0 l 1
 194 0 l 1
EndSplineSet
EndChar

StartChar: g
Encoding: 103 103 222
Width: 1257
VWidth: 0
GlyphClass: 2
Flags: HMW
PickledData: "(dp1
S'org.pippin.gimp.org.kernagic'
p2
(dp3
S'lstem'
p4
I0
sS'rstem'
p5
I0
ssS'com.typemytype.robofont.layerData'
p6
(dp7
sS'com.fontlab.hintData'
p8
(dp9
S'vhints'
p10
((dp11
S'position'
p12
I128
sS'width'
p13
I122
s(dp14
g12
I977
sg13
I125
s(dp15
g12
I977
sg13
I36
stp16
sS'hhints'
p17
((dp18
g12
I-426
sg13
I101
s(dp19
g12
I0
sg13
I93
s(dp20
g12
I982
sg13
I92
stp21
ssS'org.robofab.postScriptHintData'
p22
(dp23
s."
AnchorPoint: "top" 616 1082 basechar 0
LayerCount: 2
Fore
SplineSet
596 71 m 0
 865 71 949 247 984 319 c 1
 984 765 l 1
 947 856 859 1032 598 1032 c 0
 311 1032 217 742 217 536 c 0
 217 351 314 71 596 71 c 0
574 -447 m 0
 444 -447 326 -419 282 -405 c 1
 283 -331 l 1
 294 -331 l 1
 343 -350 460 -373 560 -373 c 0
 873 -373 984 -250 984 69 c 2
 984 207 l 1
 925 103 807 0 600 -1 c 0
 243 -1 120 307 120 536 c 0
 120 785 226 1102 615 1102 c 0
 799 1102 919 1015 982 902 c 1
 991 1082 l 1
 1080 1082 l 1
 1080 78 l 2
 1080 -243 974 -447 574 -447 c 0
EndSplineSet
EndChar

StartChar: germandbls
Encoding: 223 223 228
Width: 1191
VWidth: 0
GlyphClass: 2
Flags: HMW
PickledData: "(dp1
S'org.pippin.gimp.org.kernagic'
p2
(dp3
S'lstem'
p4
I0
sS'rstem'
p5
I0
ssS'com.typemytype.robofont.layerData'
p6
(dp7
S'b'
(dp8
S'name'
p9
S'germandbls'
p10
sS'lib'
p11
(dp12
sS'unicodes'
p13
(tsS'width'
p14
I1278
sS'contours'
p15
(tsS'components'
p16
(tsS'anchors'
p17
(tsssS'org.robofab.postScriptHintData'
p18
(dp19
s."
LayerCount: 2
Fore
SplineSet
798 -18 m 0
 651 -18 513 29 461 63 c 1
 495 142 l 1
 560 107 669 62 802 62 c 0
 961 62 1003 181 1003 261 c 0
 1003 493 612 542 612 742 c 0
 612 906 823 973 823 1204 c 0
 823 1328 757 1422 599 1422 c 0
 393 1422 301 1330 301 1038 c 2
 301 0 l 1
 201 0 l 1
 201 1027 l 2
 201 1318 300 1496 601 1496 c 0
 824 1496 928 1355 928 1198 c 0
 928 1010 695 853 695 747 c 0
 695 618 1094 556 1094 273 c 0
 1094 102 987 -18 798 -18 c 0
EndSplineSet
EndChar

StartChar: grave
Encoding: 96 96 229
Width: 804
VWidth: 0
GlyphClass: 4
Flags: HMW
PickledData: "(dp1
S'org.robofab.postScriptHintData'
p2
(dp3
sS'com.typemytype.robofont.layerData'
p4
(dp5
s."
AnchorPoint: "top" 403 1053 mark 0
LayerCount: 2
Fore
SplineSet
389 1210 m 1
 108 1561 l 1
 229 1561 l 1
 443 1210 l 1
 389 1210 l 1
EndSplineSet
EndChar

StartChar: greater
Encoding: 62 62 230
Width: 1234
VWidth: 0
GlyphClass: 2
Flags: HMW
PickledData: "(dp1
S'org.pippin.gimp.org.kernagic'
p2
(dp3
S'lstem'
p4
I0
sS'rstem'
p5
I0
ssS'com.typemytype.robofont.layerData'
p6
(dp7
S'b'
(dp8
S'name'
p9
S'greater'
p10
sS'lib'
p11
(dp12
sS'unicodes'
p13
(tsS'width'
p14
I1107
sS'contours'
p15
(tsS'components'
p16
(tsS'anchors'
p17
(tsssS'org.robofab.postScriptHintData'
p18
(dp19
s."
LayerCount: 2
Fore
SplineSet
148 1017 m 1
 148 1105 l 1
 1083 612 l 1
 1083 552 l 1
 144 114 l 1
 144 197 l 1
 981 586 l 1
 148 1017 l 1
EndSplineSet
EndChar

StartChar: greaterequal
Encoding: 8805 8805 231
Width: 1245
VWidth: 0
GlyphClass: 2
Flags: HMW
PickledData: "(dp1
S'org.pippin.gimp.org.kernagic'
p2
(dp3
S'lstem'
p4
I0
sS'rstem'
p5
I0
ssS'com.typemytype.robofont.layerData'
p6
(dp7
S'b'
(dp8
S'name'
p9
S'greaterequal'
p10
sS'lib'
p11
(dp12
sS'unicodes'
p13
(tsS'width'
p14
I1192
sS'contours'
p15
(tsS'components'
p16
(tsS'anchors'
p17
(tsssS'org.robofab.postScriptHintData'
p18
(dp19
s."
LayerCount: 2
Fore
SplineSet
127 13 m 1
 127 104 l 1
 1085 107 l 1
 1085 13 l 1
 127 13 l 1
174 248 m 1
 174 330 l 1
 1016 758 l 1
 180 1220 l 1
 180 1306 l 1
 1056 782 l 1
 1056 734 l 1
 174 248 l 1
EndSplineSet
EndChar

StartChar: guillemotleft
Encoding: 171 171 232
Width: 1010
VWidth: 0
GlyphClass: 2
Flags: HMW
PickledData: "(dp1
S'org.pippin.gimp.org.kernagic'
p2
(dp3
S'lstem'
p4
I0
sS'rstem'
p5
I0
ssS'com.typemytype.robofont.layerData'
p6
(dp7
S'b'
(dp8
S'name'
p9
S'guillemotleft'
p10
sS'lib'
p11
(dp12
sS'unicodes'
p13
(tsS'width'
p14
I994
sS'contours'
p15
(tsS'components'
p16
(tsS'anchors'
p17
(tsssS'org.robofab.postScriptHintData'
p18
(dp19
s."
LayerCount: 2
Fore
SplineSet
725 163 m 1
 455 537 l 1
 728 912 l 1
 792 899 l 1
 526 540 l 1
 785 175 l 1
 725 163 l 1
410 163 m 1
 140 537 l 1
 414 912 l 1
 478 899 l 1
 212 540 l 1
 470 175 l 1
 410 163 l 1
EndSplineSet
EndChar

StartChar: guillemotright
Encoding: 187 187 233
Width: 966
VWidth: 0
GlyphClass: 2
Flags: HMW
PickledData: "(dp1
S'org.pippin.gimp.org.kernagic'
p2
(dp3
S'lstem'
p4
I0
sS'rstem'
p5
I0
ssS'com.typemytype.robofont.layerData'
p6
(dp7
sS'org.robofab.postScriptHintData'
p8
(dp9
s."
LayerCount: 2
Fore
SplineSet
548 163 m 1
 484 176 l 1
 750 534 l 1
 491 900 l 1
 551 912 l 1
 821 537 l 1
 548 163 l 1
233 163 m 1
 168 176 l 1
 435 534 l 1
 176 900 l 1
 236 912 l 1
 506 537 l 1
 233 163 l 1
EndSplineSet
EndChar

StartChar: guilsinglleft
Encoding: 8249 8249 234
Width: 659
VWidth: 0
GlyphClass: 2
Flags: HMW
PickledData: "(dp1
S'org.robofab.postScriptHintData'
p2
(dp3
s."
LayerCount: 2
Fore
SplineSet
446 138 m 1
 129 567 l 1
 449 1006 l 1
 530 1006 l 1
 215 566 l 1
 526 138 l 1
 446 138 l 1
EndSplineSet
EndChar

StartChar: guilsinglright
Encoding: 8250 8250 235
Width: 683
VWidth: 0
GlyphClass: 2
Flags: HMW
PickledData: "(dp1
S'org.pippin.gimp.org.kernagic'
p2
(dp3
S'lstem'
p4
I0
sS'rstem'
p5
I0
ssS'com.typemytype.robofont.layerData'
p6
(dp7
S'b'
(dp8
S'name'
p9
S'guilsinglright'
p10
sS'lib'
p11
(dp12
sS'unicodes'
p13
(tsS'width'
p14
I766
sS'contours'
p15
(tsS'components'
p16
(tsS'anchors'
p17
(tsssS'org.robofab.postScriptHintData'
p18
(dp19
s."
LayerCount: 2
Fore
SplineSet
162 138 m 1
 476 581 l 1
 166 1007 l 1
 246 1007 l 1
 564 580 l 1
 243 138 l 1
 162 138 l 1
EndSplineSet
EndChar

StartChar: h
Encoding: 104 104 236
Width: 1183
VWidth: 0
GlyphClass: 2
Flags: HMW
PickledData: "(dp1
S'org.pippin.gimp.org.kernagic'
p2
(dp3
S'lstem'
p4
I0
sS'rstem'
p5
I0
ssS'com.typemytype.robofont.layerData'
p6
(dp7
sS'com.fontlab.hintData'
p8
(dp9
S'vhints'
p10
((dp11
S'position'
p12
I193
sS'width'
p13
I122
s(dp14
g12
I910
sg13
I122
stp15
sS'hhints'
p16
((dp17
g12
I982
sg13
I92
stp18
ssS'org.robofab.postScriptHintData'
p19
(dp20
s."
AnchorPoint: "top" 578 1286 basechar 0
LayerCount: 2
Fore
SplineSet
188 0 m 1
 188 1540 l 1
 285 1560 l 1
 285 1123 l 1
 280 895 l 1
 354 1035 491 1102 664 1102 c 0
 901 1102 1008 931 1008 674 c 2
 1008 0 l 1
 911 0 l 1
 911 680 l 2
 911 910 842 1032 652 1032 c 0
 361 1032 285 816 285 655 c 2
 285 0 l 1
 188 0 l 1
EndSplineSet
EndChar

StartChar: hungarumlaut
Encoding: 733 733 239
Width: 671
VWidth: 0
GlyphClass: 4
Flags: HMW
PickledData: "(dp1
S'org.robofab.postScriptHintData'
p2
(dp3
sS'com.typemytype.robofont.layerData'
p4
(dp5
s."
AnchorPoint: "top" 299 1053 mark 0
LayerCount: 2
Fore
SplineSet
381 1237 m 1
 533 1540 l 1
 622 1540 l 1
 443 1237 l 1
 381 1237 l 1
186 1237 m 1
 296 1540 l 1
 375 1540 l 1
 246 1237 l 1
 186 1237 l 1
EndSplineSet
EndChar

StartChar: hyphen
Encoding: 45 45 240
Width: 811
VWidth: 0
GlyphClass: 4
Flags: HMW
PickledData: "(dp1
S'org.pippin.gimp.org.kernagic'
p2
(dp3
S'lstem'
p4
I0
sS'rstem'
p5
I0
ssS'com.typemytype.robofont.layerData'
p6
(dp7
sS'org.robofab.postScriptHintData'
p8
(dp9
s."
LayerCount: 2
Fore
SplineSet
143 534 m 1
 143 606 l 1
 641 606 l 1
 641 534 l 1
 143 534 l 1
EndSplineSet
EndChar

StartChar: infinity
Encoding: 8734 8734 252
Width: 1728
VWidth: 0
GlyphClass: 2
Flags: HMW
PickledData: "(dp1
S'org.pippin.gimp.org.kernagic'
p2
(dp3
S'lstem'
p4
I0
sS'rstem'
p5
I0
ssS'com.typemytype.robofont.layerData'
p6
(dp7
S'b'
(dp8
S'name'
p9
S'infinity'
p10
sS'lib'
p11
(dp12
sS'unicodes'
p13
(tsS'width'
p14
I1647
sS'contours'
p15
(tsS'components'
p16
(tsS'anchors'
p17
(tsssS'org.robofab.postScriptHintData'
p18
(dp19
s."
LayerCount: 2
Fore
SplineSet
1525 647 m 0
 1525 801 1421 904 1266 904 c 0
 1129 904 1023 825 901 636 c 1
 1053 423 1158 338 1270 338 c 0
 1424 338 1525 462 1525 647 c 0
829 611 m 1
 704 819 596 904 454 904 c 0
 295 904 189 790 189 622 c 0
 189 452 298 338 461 338 c 0
 596 338 703 417 829 611 c 1
862 688 m 1
 1013 898 1129 983 1270 983 c 0
 1477 983 1614 839 1614 625 c 0
 1614 411 1475 267 1268 267 c 0
 1136 267 1023 350 869 555 c 1
 716 350 598 267 459 267 c 0
 249 267 110 418 110 642 c 0
 110 846 249 983 455 983 c 0
 588 983 705 898 862 688 c 1
EndSplineSet
EndChar

StartChar: integral
Encoding: 8747 8747 253
Width: 740
VWidth: 0
GlyphClass: 2
Flags: HMW
PickledData: "(dp1
S'org.pippin.gimp.org.kernagic'
p2
(dp3
S'lstem'
p4
I0
sS'rstem'
p5
I0
ssS'com.typemytype.robofont.layerData'
p6
(dp7
S'b'
(dp8
S'name'
p9
S'integral'
p10
sS'lib'
p11
(dp12
sS'unicodes'
p13
(tsS'width'
p14
I994
sS'contours'
p15
(tsS'components'
p16
(tsS'anchors'
p17
(tsssS'org.robofab.postScriptHintData'
p18
(dp19
s."
LayerCount: 2
Fore
SplineSet
330 1136 m 2
 330 1372 383 1471 535 1471 c 0
 569 1471 608 1466 652 1456 c 1
 652 1388 l 1
 616 1399 586 1404 559 1404 c 0
 442 1404 418 1340 418 1125 c 2
 418 -41 l 2
 418 -281 361 -411 180 -411 c 0
 147 -411 110 -407 69 -398 c 1
 69 -328 l 1
 105 -337 138 -341 165 -341 c 0
 302 -341 330 -231 330 -49 c 2
 330 1136 l 2
EndSplineSet
EndChar

StartChar: k
Encoding: 107 107 258
Width: 1054
VWidth: 0
GlyphClass: 2
Flags: HMW
PickledData: "(dp1
S'org.pippin.gimp.org.kernagic'
p2
(dp3
S'lstem'
p4
I0
sS'rstem'
p5
I671
ssS'com.typemytype.robofont.layerData'
p6
(dp7
sS'org.robofab.postScriptHintData'
p8
(dp9
s."
LayerCount: 2
Fore
SplineSet
189 0 m 1
 189 1540 l 1
 286 1560 l 1
 286 691 l 1
 280 488 l 1
 907 1082 l 1
 1010 1082 l 1
 1010 1077 l 1
 481 571 l 1
 1018 5 l 1
 1018 0 l 1
 907 0 l 1
 424 520 l 1
 286 396 l 1
 286 0 l 1
 189 0 l 1
EndSplineSet
EndChar

StartChar: kgreenlandic
Encoding: 312 312 260
Width: 1057
VWidth: 0
GlyphClass: 2
Flags: HMW
PickledData: "(dp1
S'org.robofab.postScriptHintData'
p2
(dp3
s."
LayerCount: 2
Fore
SplineSet
186 0 m 1
 186 1082 l 1
 284 1082 l 1
 284 700 l 1
 278 498 l 1
 905 1082 l 1
 1000 1082 l 1
 1000 1068 l 1
 479 580 l 1
 1007 13 l 1
 1007 0 l 1
 905 0 l 1
 422 529 l 1
 284 406 l 1
 284 0 l 1
 186 0 l 1
EndSplineSet
EndChar

StartChar: l
Encoding: 108 108 261
Width: 588
VWidth: 0
GlyphClass: 2
Flags: HMW
PickledData: "(dp1
S'org.pippin.gimp.org.kernagic'
p2
(dp3
S'lstem'
p4
I0
sS'rstem'
p5
I238
ssS'com.typemytype.robofont.layerData'
p6
(dp7
sS'com.fontlab.hintData'
p8
(dp9
S'vhints'
p10
((dp11
S'position'
p12
I193
sS'width'
p13
I122
stp14
sS'hhints'
p15
((dp16
g12
I-11
sg13
I87
stp17
ssS'org.robofab.postScriptHintData'
p18
(dp19
s."
AnchorPoint: "top" 344 1458 basechar 0
LayerCount: 2
Fore
SplineSet
434 -10 m 0
 329 -10 191 27 191 244 c 2
 191 1540 l 1
 288 1560 l 1
 288 244 l 2
 288 126 322 56 452 56 c 0
 502 56 555 59 566 61 c 1
 565 -4 l 1
 542 -7 492 -10 434 -10 c 0
EndSplineSet
EndChar

StartChar: less
Encoding: 60 60 266
Width: 1219
VWidth: 0
GlyphClass: 2
Flags: HMW
PickledData: "(dp1
S'org.pippin.gimp.org.kernagic'
p2
(dp3
S'lstem'
p4
I0
sS'rstem'
p5
I0
ssS'com.typemytype.robofont.layerData'
p6
(dp7
S'b'
(dp8
S'name'
p9
S'less'
p10
sS'lib'
p11
(dp12
sS'unicodes'
p13
(tsS'width'
p14
I1107
sS'contours'
p15
(tsS'components'
p16
(tsS'anchors'
p17
(tsssS'org.robofab.postScriptHintData'
p18
(dp19
s."
LayerCount: 2
Fore
SplineSet
1049 106 m 1
 114 554 l 1
 114 612 l 1
 1053 1096 l 1
 1053 1007 l 1
 204 586 l 1
 1052 187 l 1
 1049 106 l 1
EndSplineSet
EndChar

StartChar: lessequal
Encoding: 8804 8804 267
Width: 1249
VWidth: 0
GlyphClass: 2
Flags: HMW
PickledData: "(dp1
S'org.robofab.postScriptHintData'
p2
(dp3
sS'com.typemytype.robofont.layerData'
p4
(dp5
s."
LayerCount: 2
Fore
SplineSet
123 0 m 1
 123 84 l 1
 1090 84 l 1
 1090 0 l 1
 123 0 l 1
1045 229 m 1
 177 723 l 1
 177 775 l 1
 1045 1301 l 1
 1045 1212 l 1
 301 750 l 1
 1045 312 l 1
 1045 229 l 1
EndSplineSet
EndChar

StartChar: logicalnot
Encoding: 172 172 268
Width: 1222
VWidth: 0
GlyphClass: 2
Flags: HMW
PickledData: "(dp1
S'org.pippin.gimp.org.kernagic'
p2
(dp3
S'lstem'
p4
I0
sS'rstem'
p5
I0
ssS'com.typemytype.robofont.layerData'
p6
(dp7
sS'org.robofab.postScriptHintData'
p8
(dp9
s."
LayerCount: 2
Fore
SplineSet
111 779 m 1
 1061 779 l 1
 1061 263 l 1
 992 263 l 1
 992 706 l 1
 111 706 l 1
 111 779 l 1
EndSplineSet
EndChar

StartChar: lozenge
Encoding: 9674 9674 269
Width: 1189
VWidth: 0
GlyphClass: 2
Flags: HMW
PickledData: "(dp1
S'org.pippin.gimp.org.kernagic'
p2
(dp3
S'lstem'
p4
I0
sS'rstem'
p5
I0
ssS'com.typemytype.robofont.layerData'
p6
(dp7
S'b'
(dp8
S'name'
p9
S'lozenge'
p10
sS'lib'
p11
(dp12
sS'unicodes'
p13
(tsS'width'
p14
I1164
sS'contours'
p15
(tsS'components'
p16
(tsS'anchors'
p17
(tsssS'org.robofab.postScriptHintData'
p18
(dp19
s."
LayerCount: 2
Fore
SplineSet
952 780 m 1
 581 1527 l 1
 194 783 l 1
 567 30 l 1
 952 780 l 1
536 1605 m 1
 618 1605 l 1
 1041 784 l 1
 610 -40 l 1
 530 -40 l 1
 104 781 l 1
 536 1605 l 1
EndSplineSet
EndChar

StartChar: m
Encoding: 109 109 271
Width: 1781
VWidth: 0
GlyphClass: 2
Flags: HMW
PickledData: "(dp1
S'org.pippin.gimp.org.kernagic'
p2
(dp3
S'lstem'
p4
I0
sS'rstem'
p5
I0
ssS'com.typemytype.robofont.layerData'
p6
(dp7
sS'com.fontlab.hintData'
p8
(dp9
S'vhints'
p10
((dp11
S'position'
p12
I193
sS'width'
p13
I122
s(dp14
g12
I193
sg13
I98
s(dp15
g12
I845
sg13
I122
s(dp16
g12
I1483
sg13
I122
stp17
sS'hhints'
p18
((dp19
g12
I982
sg13
I92
stp20
ssS'org.robofab.postScriptHintData'
p21
(dp22
s."
AnchorPoint: "top" 934 1082 basechar 0
LayerCount: 2
Fore
SplineSet
187 0 m 1
 187 1082 l 1
 268 1082 l 1
 280 901 l 1
 355 1035 472 1102 628 1102 c 0
 794 1102 887 1012 924 861 c 1
 983 1028 1120 1102 1289 1102 c 0
 1519 1102 1606 967 1606 662 c 2
 1606 0 l 1
 1509 0 l 1
 1509 710 l 1
 1509 717 l 2
 1509 907 1471 1032 1286 1032 c 0
 1034 1032 947 842 946 671 c 2
 946 0 l 1
 848 0 l 1
 848 709 l 1
 848 716 l 2
 848 909 808 1032 625 1032 c 0
 369 1032 287 841 285 671 c 2
 285 0 l 1
 187 0 l 1
EndSplineSet
EndChar

StartChar: macron
Encoding: 175 175 272
Width: 1232
VWidth: 0
GlyphClass: 4
Flags: HMW
PickledData: "(dp1
S'org.robofab.postScriptHintData'
p2
(dp3
sS'com.typemytype.robofont.layerData'
p4
(dp5
s."
AnchorPoint: "top" 616 1053 mark 0
LayerCount: 2
Fore
SplineSet
355 1381 m 1
 355 1435 l 1
 828 1435 l 1
 828 1381 l 1
 355 1381 l 1
EndSplineSet
EndChar

StartChar: minus
Encoding: 8722 8722 274
Width: 1089
VWidth: 0
GlyphClass: 2
Flags: HMW
PickledData: "(dp1
S'org.pippin.gimp.org.kernagic'
p2
(dp3
S'lstem'
p4
I0
sS'rstem'
p5
I0
ssS'com.typemytype.robofont.layerData'
p6
(dp7
sS'org.robofab.postScriptHintData'
p8
(dp9
s."
LayerCount: 2
Fore
SplineSet
67 680 m 1
 996 680 l 1
 996 585 l 1
 67 585 l 1
 67 680 l 1
EndSplineSet
EndChar

StartChar: multiply
Encoding: 215 215 275
Width: 664
VWidth: 0
GlyphClass: 2
Flags: HMW
PickledData: "(dp1
S'org.pippin.gimp.org.kernagic'
p2
(dp3
S'lstem'
p4
I0
sS'rstem'
p5
I0
ssS'com.typemytype.robofont.layerData'
p6
(dp7
sS'org.robofab.postScriptHintData'
p8
(dp9
s."
LayerCount: 2
Fore
SplineSet
37 858 m 1
 85 904 l 1
 337 627 l 1
 586 897 l 1
 637 852 l 1
 379 580 l 1
 390 570 642 291 642 291 c 1
 601 250 l 1
 337 536 l 1
 68 249 l 1
 22 288 l 1
 295 581 l 1
 37 858 l 1
EndSplineSet
EndChar

StartChar: n
Encoding: 110 110 276
Width: 1164
VWidth: 0
GlyphClass: 2
Flags: HMW
PickledData: "(dp1
S'org.pippin.gimp.org.kernagic'
p2
(dp3
S'lstem'
p4
I0
sS'rstem'
p5
I0
ssS'com.typemytype.robofont.layerData'
p6
(dp7
sS'com.fontlab.hintData'
p8
(dp9
S'vhints'
p10
((dp11
S'position'
p12
I193
sS'width'
p13
I122
s(dp14
g12
I903
sg13
I122
stp15
sS'hhints'
p16
((dp17
g12
I0
sg13
I22
s(dp18
g12
I982
sg13
I92
s(dp19
g12
I1034
sg13
I21
stp20
ssS'org.robofab.postScriptHintData'
p21
(dp22
s."
AnchorPoint: "top" 643 1082 basechar 0
LayerCount: 2
Fore
SplineSet
187 0 m 1
 187 1082 l 1
 267 1082 l 1
 280 898 l 1
 337 1019 450 1102 644 1102 c 0
 885 1102 990 966 990 661 c 2
 990 0 l 1
 892 0 l 1
 892 711 l 2
 893 906 836 1032 641 1032 c 0
 352 1032 284 840 284 670 c 2
 284 0 l 1
 187 0 l 1
EndSplineSet
EndChar

StartChar: nine
Encoding: 57 57 281
Width: 1200
VWidth: 0
GlyphClass: 2
Flags: HMW
PickledData: "(dp1
S'org.pippin.gimp.org.kernagic'
p2
(dp3
S'lstem'
p4
I0
sS'rstem'
p5
I0
ssS'com.typemytype.robofont.layerData'
p6
(dp7
sS'org.robofab.postScriptHintData'
p8
(dp9
s."
LayerCount: 2
Fore
SplineSet
616 693 m 0
 718 693 977 743 977 1041 c 0
 977 1224 861 1402 626 1402 c 0
 395 1402 271 1219 271 1034 c 0
 271 840 401 693 616 693 c 0
361 0 m 1
 361 8 l 1
 530 232 696 459 869 679 c 1
 795 636 696 613 601 613 c 0
 393 613 185 778 185 1035 c 0
 185 1267 342 1476 626 1476 c 0
 928 1476 1060 1240 1060 1031 c 0
 1060 798 956 658 792 439 c 2
 463 0 l 1
 361 0 l 1
EndSplineSet
EndChar

StartChar: notequal
Encoding: 8800 8800 282
Width: 1158
VWidth: 0
GlyphClass: 2
Flags: HMW
PickledData: "(dp1
S'org.pippin.gimp.org.kernagic'
p2
(dp3
S'lstem'
p4
I0
sS'rstem'
p5
I0
ssS'com.typemytype.robofont.layerData'
p6
(dp7
S'b'
(dp8
S'name'
p9
S'notequal'
p10
sS'lib'
p11
(dp12
sS'unicodes'
p13
(tsS'width'
p14
I1079
sS'contours'
p15
(tsS'components'
p16
(tsS'anchors'
p17
(tsssS'org.robofab.postScriptHintData'
p18
(dp19
s."
LayerCount: 2
Fore
SplineSet
277 53 m 1
 207 53 l 1
 374 377 l 1
 117 377 l 1
 113 449 l 1
 416 449 l 1
 620 829 l 1
 117 829 l 1
 113 896 l 1
 650 896 l 1
 825 1214 l 1
 895 1213 l 1
 725 896 l 1
 998 896 l 1
 1002 831 l 1
 695 831 l 1
 486 449 l 1
 1002 449 l 1
 1002 377 l 1
 453 377 l 1
 277 53 l 1
EndSplineSet
EndChar

StartChar: numbersign
Encoding: 35 35 284
Width: 1175
VWidth: 0
GlyphClass: 2
Flags: HMW
PickledData: "(dp1
S'org.pippin.gimp.org.kernagic'
p2
(dp3
S'lstem'
p4
I0
sS'rstem'
p5
I0
ssS'com.typemytype.robofont.layerData'
p6
(dp7
sS'org.robofab.postScriptHintData'
p8
(dp9
s."
LayerCount: 2
Fore
SplineSet
412 500 m 1
 707 500 l 1
 801 965 l 1
 506 965 l 1
 412 500 l 1
240 -1 m 1
 329 435 l 1
 175 435 l 1
 184 500 l 1
 342 500 l 1
 435 965 l 1
 266 965 l 1
 274 1029 l 1
 449 1029 l 1
 537 1459 l 1
 606 1459 l 1
 519 1029 l 1
 815 1029 l 1
 902 1459 l 1
 971 1459 l 1
 885 1029 l 1
 1056 1029 l 1
 1044 965 l 1
 871 965 l 1
 777 500 l 1
 966 500 l 1
 954 435 l 1
 764 435 l 1
 675 -1 l 1
 607 -1 l 1
 693 435 l 1
 398 435 l 1
 309 -1 l 1
 240 -1 l 1
EndSplineSet
EndChar

StartChar: o
Encoding: 111 111 285
Width: 1199
VWidth: 0
GlyphClass: 2
Flags: HMW
PickledData: "(dp1
S'org.pippin.gimp.org.kernagic'
p2
(dp3
S'lstem'
p4
I0
sS'rstem'
p5
I0
ssS'com.fontlab.hintData'
p6
(dp7
S'vhints'
p8
((dp9
S'position'
p10
I128
sS'width'
p11
I120
s(dp12
g10
I982
sg11
I120
stp13
sS'hhints'
p14
((dp15
g10
I-19
sg11
I92
s(dp16
g10
I982
sg11
I92
stp17
ssS'com.typemytype.robofont.guides'
p18
((dp19
S'y'
I1093
sS'x'
I582
sS'magnetic'
p20
I5
sS'angle'
p21
F90
sS'isGlobal'
p22
I00
stp23
sS'com.typemytype.robofont.layerData'
p24
(dp25
sS'org.robofab.postScriptHintData'
p26
(dp27
s."
AnchorPoint: "top" 603 1082 basechar 0
LayerCount: 2
Fore
SplineSet
600 -20 m 0
 310 -20 120 216 120 541 c 0
 120 881 310 1102 600 1102 c 0
 889 1102 1079 881 1079 541 c 0
 1079 216 889 -20 600 -20 c 0
600 49 m 0
 832 49 982 257 982 538 c 0
 982 838 832 1033 600 1033 c 0
 367 1033 218 839 218 539 c 0
 218 257 367 49 600 49 c 0
EndSplineSet
EndChar

StartChar: oe
Encoding: 339 339 290
Width: 1988
VWidth: 0
GlyphClass: 2
Flags: HMW
PickledData: "(dp1
S'org.pippin.gimp.org.kernagic'
p2
(dp3
S'lstem'
p4
I0
sS'rstem'
p5
I0
ssS'com.typemytype.robofont.layerData'
p6
(dp7
S'b'
(dp8
S'name'
p9
S'oe'
p10
sS'lib'
p11
(dp12
sS'unicodes'
p13
(tsS'width'
p14
F1915.3599999999999
sS'contours'
p15
(tsS'components'
p16
(tsS'anchors'
p17
(tsssS'org.robofab.postScriptHintData'
p18
(dp19
s."
LayerCount: 2
Fore
SplineSet
1088 589 m 1
 1787 589 l 1
 1780 854 1692 998 1481 999 c 0
 1251 999 1111 824 1088 589 c 1
604 51 m 0
 876 51 987 273 987 519 c 0
 987 778 873 1001 604 1001 c 0
 342 1001 220 779 220 520 c 0
 220 272 343 51 604 51 c 0
1802 143 m 1
 1814 143 l 1
 1841 85 l 1
 1740 31 1653 -18 1474 -18 c 0
 1269 -18 1095 90 1034 319 c 1
 971 103 803 -18 604 -18 c 0
 300 -18 124 217 124 522 c 0
 124 832 301 1071 604 1071 c 0
 827 1071 994 940 1041 717 c 1
 1101 950 1290 1071 1470 1071 c 2
 1472 1071 l 2
 1722 1071 1864 887 1864 592 c 0
 1864 560 1859 527 1859 527 c 1
 1084 527 l 1
 1084 182 1276 55 1476 55 c 0
 1603 55 1672 79 1802 143 c 1
EndSplineSet
EndChar

StartChar: ogonek
Encoding: 731 731 291
Width: 629
VWidth: 0
GlyphClass: 4
Flags: HMW
PickledData: "(dp1
S'org.pippin.gimp.org.kernagic'
p2
(dp3
S'lstem'
p4
I0
sS'rstem'
p5
I0
ssS'com.typemytype.robofont.layerData'
p6
(dp7
sS'org.robofab.postScriptHintData'
p8
(dp9
s."
LayerCount: 2
Fore
SplineSet
320 -388 m 0
 240 -388 166 -353 166 -262 c 0
 166 -176 233 -71 357 0 c 1
 416 0 l 1
 329 -58 246 -147 246 -236 c 0
 246 -305 292 -332 346 -332 c 0
 375 -332 407 -325 433 -313 c 1
 433 -318 l 2
 433 -331 432 -364 432 -364 c 1
 402 -379 361 -388 320 -388 c 0
EndSplineSet
EndChar

StartChar: one
Encoding: 49 49 295
Width: 1200
VWidth: 0
GlyphClass: 2
Flags: HMW
PickledData: "(dp1
S'org.pippin.gimp.org.kernagic'
p2
(dp3
S'lstem'
p4
I0
sS'rstem'
p5
I0
ssS'com.typemytype.robofont.layerData'
p6
(dp7
sS'org.robofab.postScriptHintData'
p8
(dp9
s."
LayerCount: 2
Fore
SplineSet
236 0 m 1
 236 72 l 1
 617 72 l 1
 617 1372 l 1
 515 1317 336 1272 279 1266 c 1
 279 1344 l 1
 336 1349 542 1406 613 1456 c 1
 714 1456 l 1
 715 72 l 1
 1053 72 l 1
 1053 0 l 1
 236 0 l 1
EndSplineSet
EndChar

StartChar: onehalf
Encoding: 189 189 296
Width: 1688
VWidth: 0
GlyphClass: 2
Flags: HMW
PickledData: "(dp1
S'org.pippin.gimp.org.kernagic'
p2
(dp3
S'lstem'
p4
I0
sS'rstem'
p5
I0
ssS'com.typemytype.robofont.layerData'
p6
(dp7
sS'org.robofab.postScriptHintData'
p8
(dp9
s."
LayerCount: 2
Fore
SplineSet
376 0 m 1
 1249 1525 l 1
 1330 1525 l 1
 456 0 l 1
 376 0 l 1
115 682 m 1
 115 739 l 1
 280 739 l 1
 280 1430 l 1
 243 1404 164 1372 108 1352 c 1
 108 1413 l 1
 166 1434 247 1464 293 1511 c 1
 359 1511 l 1
 359 739 l 1
 505 739 l 1
 505 682 l 1
 115 682 l 1
1048 0 m 1
 1048 62 l 1
 1165 183 1270 274 1333 340 c 0
 1443 450 1484 511 1484 597 c 0
 1484 698 1416 767 1307 767 c 0
 1209 767 1135 724 1074 623 c 1
 1013 660 l 1
 1070 773 1175 839 1307 839 c 0
 1458 839 1568 747 1568 597 c 0
 1568 488 1505 410 1385 294 c 0
 1327 234 1240 160 1153 69 c 1
 1554 69 l 1
 1557 0 l 1
 1048 0 l 1
EndSplineSet
EndChar

StartChar: onequarter
Encoding: 188 188 297
Width: 1637
VWidth: 0
GlyphClass: 2
Flags: HMW
PickledData: "(dp1
S'org.pippin.gimp.org.kernagic'
p2
(dp3
S'lstem'
p4
I0
sS'rstem'
p5
I0
ssS'com.typemytype.robofont.layerData'
p6
(dp7
sS'org.robofab.postScriptHintData'
p8
(dp9
s."
LayerCount: 2
Fore
SplineSet
1062 275 m 1
 1373 275 l 1
 1373 738 l 1
 1062 275 l 1
391 0 m 1
 1264 1525 l 1
 1345 1525 l 1
 472 0 l 1
 391 0 l 1
1372 -1 m 1
 1372 218 l 1
 975 218 l 1
 975 265 l 1
 1362 828 l 1
 1450 828 l 1
 1450 275 l 1
 1568 275 l 1
 1575 218 l 1
 1448 218 l 1
 1448 -1 l 1
 1372 -1 l 1
115 682 m 1
 115 739 l 1
 280 739 l 1
 280 1430 l 1
 243 1404 164 1372 108 1352 c 1
 108 1413 l 1
 166 1434 247 1464 293 1511 c 1
 359 1511 l 1
 359 739 l 1
 505 739 l 1
 505 682 l 1
 115 682 l 1
EndSplineSet
EndChar

StartChar: ordmasculine
Encoding: 186 186 299
Width: 853
VWidth: 0
GlyphClass: 2
Flags: HMW
PickledData: "(dp1
S'org.pippin.gimp.org.kernagic'
p2
(dp3
S'lstem'
p4
I0
sS'rstem'
p5
I0
ssS'com.typemytype.robofont.layerData'
p6
(dp7
S'b'
(dp8
S'name'
p9
S'ordmasculine'
p10
sS'lib'
p11
(dp12
sS'unicodes'
p13
(tsS'width'
p14
I965
sS'contours'
p15
(tsS'components'
p16
(tsS'anchors'
p17
(tsssS'org.robofab.postScriptHintData'
p18
(dp19
s."
LayerCount: 2
Fore
SplineSet
665 1170 m 0
 665 1334 584 1475 426 1475 c 0
 274 1475 196 1336 196 1173 c 0
 196 1013 273 873 426 873 c 0
 588 873 665 1011 665 1170 c 0
94 1172 m 0
 94 1388 218 1547 426 1547 c 0
 641 1547 759 1391 759 1172 c 0
 759 963 623 802 426 802 c 0
 218 802 94 960 94 1172 c 0
EndSplineSet
EndChar

StartChar: oslash
Encoding: 248 248 300
Width: 1199
VWidth: 0
GlyphClass: 2
Flags: HMW
PickledData: "(dp1
S'org.pippin.gimp.org.kernagic'
p2
(dp3
S'lstem'
p4
I0
sS'rstem'
p5
I0
ssS'com.typemytype.robofont.layerData'
p6
(dp7
sS'org.robofab.postScriptHintData'
p8
(dp9
s."
LayerCount: 2
Fore
SplineSet
232 -121 m 1
 958 1220 l 1
 1022 1191 l 1
 292 -152 l 1
 232 -121 l 1
EndSplineSet
Refer: 285 111 N 1 0 0 1 0 0 2
EndChar

StartChar: p
Encoding: 112 112 303
Width: 1233
VWidth: 0
GlyphClass: 2
Flags: HMW
PickledData: "(dp1
S'org.pippin.gimp.org.kernagic'
p2
(dp3
S'lstem'
p4
I0
sS'rstem'
p5
I0
ssS'com.typemytype.robofont.layerData'
p6
(dp7
sS'com.fontlab.hintData'
p8
(dp9
S'vhints'
p10
((dp11
S'position'
p12
I193
sS'width'
p13
I122
s(dp14
g12
I193
sg13
I97
s(dp15
g12
I1009
sg13
I122
stp16
sS'hhints'
p17
((dp18
g12
I-19
sg13
I92
s(dp19
g12
I982
sg13
I92
stp20
ssS'org.robofab.postScriptHintData'
p21
(dp22
s."
AnchorPoint: "top" 658 1082 basechar 0
LayerCount: 2
Fore
SplineSet
646 50 m 0
 882 50 1015 230 1015 537 c 0
 1015 864 889 1032 653 1032 c 0
 381 1032 279 815 279 557 c 2
 279 334 l 1
 325 164 438 50 646 50 c 0
187 -489 m 1
 187 1082 l 1
 261 1082 l 1
 272 826 l 1
 328 981 450 1102 655 1102 c 0
 935 1102 1113 910 1113 537 c 0
 1113 185 926 -20 647 -20 c 0
 477 -20 342 54 273 196 c 1
 284 -100 l 1
 284 -482 l 1
 187 -489 l 1
EndSplineSet
EndChar

StartChar: paragraph
Encoding: 182 182 304
Width: 1119
VWidth: 0
GlyphClass: 2
Flags: HMW
PickledData: "(dp1
S'org.pippin.gimp.org.kernagic'
p2
(dp3
S'lstem'
p4
I0
sS'rstem'
p5
I0
ssS'com.typemytype.robofont.layerData'
p6
(dp7
sS'org.robofab.postScriptHintData'
p8
(dp9
s."
LayerCount: 2
Fore
SplineSet
642 1393 m 1
 642 -194 l 1
 570 -194 l 1
 570 831 l 1
 230 831 151 993 151 1155 c 0
 151 1244 166 1456 516 1456 c 2
 872 1456 l 1
 872 -194 l 1
 800 -194 l 1
 800 1393 l 1
 642 1393 l 1
EndSplineSet
EndChar

StartChar: parenleft
Encoding: 40 40 305
Width: 696
VWidth: 0
GlyphClass: 2
Flags: HMW
PickledData: "(dp1
S'org.pippin.gimp.org.kernagic'
p2
(dp3
S'lstem'
p4
I0
sS'rstem'
p5
I0
ssS'com.typemytype.robofont.layerData'
p6
(dp7
S'b'
(dp8
S'name'
p9
S'parenright'
p10
sS'lib'
p11
(dp12
sS'unicodes'
p13
(tsS'width'
p14
I766
sS'contours'
p15
(tsS'components'
p16
(tsS'anchors'
p17
(tsssS'org.robofab.postScriptHintData'
p18
(dp19
s."
LayerCount: 2
Fore
SplineSet
218 701 m 0
 218 1011 295 1318 468 1580 c 1
 559 1580 l 1
 559 1568 l 1
 348 1238 319 986 319 701 c 0
 319 417 348 165 559 -165 c 1
 559 -177 l 1
 468 -177 l 1
 295 85 218 392 218 701 c 0
EndSplineSet
EndChar

StartChar: parenright
Encoding: 41 41 306
Width: 693
VWidth: 0
GlyphClass: 2
Flags: HMW
PickledData: "(dp1
S'org.pippin.gimp.org.kernagic'
p2
(dp3
S'lstem'
p4
I0
sS'rstem'
p5
I0
ssS'com.typemytype.robofont.layerData'
p6
(dp7
S'b'
(dp8
S'name'
p9
S'parenright'
p10
sS'lib'
p11
(dp12
sS'unicodes'
p13
(tsS'width'
p14
I766
sS'contours'
p15
(tsS'components'
p16
(tsS'anchors'
p17
(tsssS'org.robofab.postScriptHintData'
p18
(dp19
s."
LayerCount: 2
Fore
SplineSet
478 701 m 0
 478 392 401 85 228 -177 c 1
 137 -177 l 1
 137 -165 l 1
 348 165 377 417 377 701 c 0
 377 986 348 1238 137 1568 c 1
 137 1580 l 1
 228 1580 l 1
 401 1318 478 1011 478 701 c 0
EndSplineSet
EndChar

StartChar: partialdiff
Encoding: 8706 8706 307
Width: 1181
VWidth: 0
GlyphClass: 2
Flags: HMW
PickledData: "(dp1
S'org.robofab.postScriptHintData'
p2
(dp3
s."
LayerCount: 2
Fore
SplineSet
482 35 m 0
 750 35 937 456 940 859 c 1
 537 859 291 490 291 246 c 0
 291 125 351 35 482 35 c 0
481 -19 m 0
 282 -19 191 104 191 261 c 0
 191 537 472 917 940 917 c 1
 934 1245 807 1495 535 1495 c 0
 457 1495 367 1474 265 1429 c 1
 243 1482 l 1
 350 1535 452 1560 544 1560 c 0
 831 1560 1027 1318 1027 906 c 0
 1027 380 810 -19 481 -19 c 0
EndSplineSet
EndChar

StartChar: percent
Encoding: 37 37 308
Width: 1806
VWidth: 0
GlyphClass: 2
Flags: HMW
PickledData: "(dp1
S'org.pippin.gimp.org.kernagic'
p2
(dp3
S'lstem'
p4
I0
sS'rstem'
p5
I0
ssS'com.typemytype.robofont.layerData'
p6
(dp7
S'b'
(dp8
S'name'
p9
S'percent'
p10
sS'lib'
p11
(dp12
sS'unicodes'
p13
(tsS'width'
p14
I1563
sS'contours'
p15
(tsS'components'
p16
(tsS'anchors'
p17
(tsssS'org.robofab.postScriptHintData'
p18
(dp19
s."
LayerCount: 2
Fore
SplineSet
1367 -13 m 0
 1143 -13 1039 152 1039 364 c 0
 1039 577 1147 740 1367 740 c 0
 1592 740 1696 580 1696 364 c 0
 1696 152 1589 -13 1367 -13 c 0
1369 54 m 0
 1540 54 1611 190 1611 364 c 0
 1611 546 1539 673 1369 673 c 0
 1197 673 1125 540 1125 364 c 0
 1125 185 1198 54 1369 54 c 0
435 0 m 1
 1267 1455 l 1
 1356 1455 l 1
 534 0 l 1
 435 0 l 1
414 711 m 0
 190 711 86 876 86 1088 c 0
 86 1300 194 1463 414 1463 c 0
 639 1463 743 1303 743 1088 c 0
 743 876 636 711 414 711 c 0
417 778 m 0
 588 778 658 914 658 1088 c 0
 658 1270 587 1397 417 1397 c 0
 244 1397 173 1264 173 1088 c 0
 173 909 245 778 417 778 c 0
EndSplineSet
EndChar

StartChar: period
Encoding: 46 46 309
Width: 459
VWidth: 0
GlyphClass: 2
Flags: HMW
PickledData: "(dp1
S'org.pippin.gimp.org.kernagic'
p2
(dp3
S'lstem'
p4
I0
sS'rstem'
p5
I0
ssS'com.typemytype.robofont.layerData'
p6
(dp7
S'b'
(dp8
S'name'
p9
S'period'
p10
sS'lib'
p11
(dp12
sS'unicodes'
p13
(tsS'width'
p14
I624
sS'contours'
p15
(tsS'components'
p16
(tsS'anchors'
p17
(tsssS'org.robofab.postScriptHintData'
p18
(dp19
s."
LayerCount: 2
Fore
SplineSet
235 -21 m 0
 170 -21 157 24 157 58 c 0
 157 92 167 136 235 136 c 0
 299 136 311 92 311 58 c 0
 311 23 299 -21 235 -21 c 0
EndSplineSet
EndChar

StartChar: periodcentered
Encoding: 183 183 310
Width: 417
VWidth: 0
GlyphClass: 2
Flags: HMW
PickledData: "(dp1
S'org.pippin.gimp.org.kernagic'
p2
(dp3
S'lstem'
p4
I0
sS'rstem'
p5
I0
ssS'com.typemytype.robofont.layerData'
p6
(dp7
S'b'
(dp8
S'name'
p9
S'periodcentered'
p10
sS'lib'
p11
(dp12
sS'unicodes'
p13
(tsS'width'
p14
I653
sS'contours'
p15
(tsS'components'
p16
(tsS'anchors'
p17
(tsssS'org.robofab.postScriptHintData'
p18
(dp19
s."
LayerCount: 2
Fore
SplineSet
209 546 m 0
 145 546 130 591 130 625 c 0
 130 659 142 703 209 703 c 0
 273 703 287 659 287 625 c 0
 287 590 273 546 209 546 c 0
EndSplineSet
EndChar

StartChar: perthousand
Encoding: 8240 8240 311
Width: 2642
VWidth: 0
GlyphClass: 2
Flags: HMW
PickledData: "(dp1
S'org.pippin.gimp.org.kernagic'
p2
(dp3
S'lstem'
p4
I0
sS'rstem'
p5
I0
ssS'com.typemytype.robofont.layerData'
p6
(dp7
S'b'
(dp8
S'name'
p9
S'perthousand'
p10
sS'lib'
p11
(dp12
sS'unicodes'
p13
(tsS'width'
p14
I2251
sS'contours'
p15
(tsS'components'
p16
(tsS'anchors'
p17
(tsssS'org.robofab.postScriptHintData'
p18
(dp19
s."
LayerCount: 2
Fore
SplineSet
2203 -13 m 0
 1979 -13 1876 152 1876 364 c 0
 1876 577 1983 740 2203 740 c 0
 2429 740 2533 580 2533 364 c 0
 2533 152 2426 -13 2203 -13 c 0
2206 54 m 0
 2378 54 2447 190 2447 364 c 0
 2447 546 2377 673 2206 673 c 0
 2034 673 1962 540 1962 364 c 0
 1962 185 2034 54 2206 54 c 0
EndSplineSet
Refer: 308 37 N 1 0 0 1 1 0 2
EndChar

StartChar: pi
Encoding: 960 960 312
Width: 1298
VWidth: 0
GlyphClass: 2
Flags: HMW
PickledData: "(dp1
S'org.robofab.postScriptHintData'
p2
(dp3
sS'com.typemytype.robofont.layerData'
p4
(dp5
s."
LayerCount: 2
Fore
SplineSet
1047 -7 m 0
 907 -7 855 73 855 274 c 0
 855 431 887 689 934 1010 c 1
 528 1010 l 1
 447 335 l 2
 420 115 379 4 105 4 c 1
 105 63 l 1
 196 63 337 124 369 342 c 2
 465 1010 l 1
 343 1010 l 2
 242 1010 202 951 190 786 c 1
 134 786 l 1
 134 1004 188 1082 406 1082 c 2
 1240 1082 l 1
 1240 1010 l 1
 1000 1010 l 1
 959 728 935 491 935 347 c 0
 935 155 979 74 1088 74 c 0
 1129 74 1170 84 1197 95 c 1
 1197 44 l 1
 1154 12 1100 -7 1047 -7 c 0
EndSplineSet
EndChar

StartChar: plus
Encoding: 43 43 313
Width: 1151
VWidth: 0
GlyphClass: 2
Flags: HMW
PickledData: "(dp1
S'org.pippin.gimp.org.kernagic'
p2
(dp3
S'lstem'
p4
I0
sS'rstem'
p5
I0
ssS'com.typemytype.robofont.layerData'
p6
(dp7
S'b'
(dp8
S'name'
p9
S'plus'
p10
sS'lib'
p11
(dp12
sS'unicodes'
p13
(tsS'width'
p14
I1136
sS'contours'
p15
(tsS'components'
p16
(tsS'anchors'
p17
(tsssS'org.robofab.postScriptHintData'
p18
(dp19
s."
LayerCount: 2
Fore
SplineSet
535 1053 m 1
 613 1053 l 1
 613 658 l 1
 981 658 l 1
 981 604 l 1
 613 604 l 1
 613 198 l 1
 535 198 l 1
 535 604 l 1
 158 604 l 1
 158 658 l 1
 535 658 l 1
 535 1053 l 1
EndSplineSet
EndChar

StartChar: plusminus
Encoding: 177 177 314
Width: 1169
VWidth: 0
GlyphClass: 2
Flags: HMW
PickledData: "(dp1
S'org.pippin.gimp.org.kernagic'
p2
(dp3
S'lstem'
p4
I0
sS'rstem'
p5
I0
ssS'com.typemytype.robofont.layerData'
p6
(dp7
sS'org.robofab.postScriptHintData'
p8
(dp9
s."
LayerCount: 2
Fore
SplineSet
112 66 m 1
 1056 66 l 1
 1056 0 l 1
 112 0 l 1
 112 66 l 1
533 1044 m 1
 606 1044 l 1
 606 640 l 1
 981 640 l 1
 981 589 l 1
 606 589 l 1
 606 175 l 1
 533 175 l 1
 533 589 l 1
 148 589 l 1
 148 640 l 1
 533 640 l 1
 533 1044 l 1
EndSplineSet
EndChar

StartChar: product
Encoding: 8719 8719 315
Width: 1436
VWidth: 0
GlyphClass: 2
Flags: HMW
PickledData: "(dp1
S'org.pippin.gimp.org.kernagic'
p2
(dp3
S'lstem'
p4
I0
sS'rstem'
p5
I0
ssS'com.typemytype.robofont.layerData'
p6
(dp7
S'b'
(dp8
S'name'
p9
S'product'
p10
sS'lib'
p11
(dp12
sS'unicodes'
p13
(tsS'width'
p14
I1533
sS'contours'
p15
(tsS'components'
p16
(tsS'anchors'
p17
(tsssS'org.robofab.postScriptHintData'
p18
(dp19
s."
LayerCount: 2
Fore
SplineSet
221 1457 m 1
 1279 1457 l 1
 1279 0 l 1
 1186 0 l 1
 1186 1362 l 1
 314 1362 l 1
 314 0 l 1
 221 0 l 1
 221 1457 l 1
EndSplineSet
EndChar

StartChar: q
Encoding: 113 113 316
Width: 1232
VWidth: 0
GlyphClass: 2
Flags: HMW
PickledData: "(dp1
S'org.pippin.gimp.org.kernagic'
p2
(dp3
S'lstem'
p4
I0
sS'rstem'
p5
I0
ssS'com.typemytype.robofont.layerData'
p6
(dp7
sS'org.robofab.postScriptHintData'
p8
(dp9
s."
LayerCount: 2
Fore
SplineSet
594 50 m 0
 764 50 894 138 948 278 c 1
 948 780 l 1
 882 950 755 1032 597 1032 c 0
 363 1032 219 845 219 542 c 0
 219 239 357 50 594 50 c 0
948 -490 m 1
 948 -132 l 1
 954 172 l 1
 897 82 785 -20 594 -20 c 0
 307 -20 119 213 119 542 c 0
 119 874 297 1102 604 1102 c 0
 801 1102 908 995 955 881 c 1
 964 1082 l 1
 1045 1082 l 1
 1045 -486 l 1
 948 -490 l 1
EndSplineSet
EndChar

StartChar: question
Encoding: 63 63 317
Width: 902
VWidth: 0
GlyphClass: 2
Flags: HMW
PickledData: "(dp1
S'org.pippin.gimp.org.kernagic'
p2
(dp3
S'lstem'
p4
I0
sS'rstem'
p5
I0
ssS'com.typemytype.robofont.layerData'
p6
(dp7
sS'org.robofab.postScriptHintData'
p8
(dp9
s."
LayerCount: 2
Fore
SplineSet
365 -17 m 0
 290 -17 277 33 277 71 c 0
 277 109 291 157 365 157 c 0
 441 157 458 109 458 71 c 0
 458 30 441 -17 365 -17 c 0
336 392 m 1
 336 399 l 2
 336 629 626 942 626 1211 c 0
 626 1366 536 1428 391 1428 c 0
 282 1428 164 1363 126 1338 c 1
 116 1427 l 1
 185 1475 286 1514 405 1514 c 0
 593 1514 727 1396 727 1219 c 0
 727 922 484 772 384 392 c 1
 336 392 l 1
EndSplineSet
EndChar

StartChar: quotedbl
Encoding: 34 34 319
Width: 565
VWidth: 0
GlyphClass: 2
Flags: HMW
PickledData: "(dp1
S'org.robofab.postScriptHintData'
p2
(dp3
sS'com.typemytype.robofont.layerData'
p4
(dp5
s."
LayerCount: 2
Fore
SplineSet
372 1072 m 1
 337 1504 l 1
 435 1504 l 1
 405 1072 l 1
 372 1072 l 1
158 1072 m 1
 123 1504 l 1
 220 1504 l 1
 191 1072 l 1
 158 1072 l 1
EndSplineSet
EndChar

StartChar: quotedblbase
Encoding: 8222 8222 320
Width: 598
VWidth: 0
GlyphClass: 2
Flags: HMW
PickledData: "(dp1
S'org.robofab.postScriptHintData'
p2
(dp3
s."
LayerCount: 2
Fore
SplineSet
336 -254 m 1
 394 179 l 1
 473 179 l 1
 374 -254 l 1
 336 -254 l 1
113 -254 m 1
 176 179 l 1
 247 179 l 1
 156 -254 l 1
 113 -254 l 1
EndSplineSet
EndChar

StartChar: quotedblleft
Encoding: 8220 8220 321
Width: 848
VWidth: 0
GlyphClass: 2
Flags: HMW
PickledData: "(dp1
S'org.robofab.postScriptHintData'
p2
(dp3
sS'com.typemytype.robofont.layerData'
p4
(dp5
s."
LayerCount: 2
Fore
SplineSet
488 1007 m 1
 586 1457 l 1
 646 1457 l 1
 591 1007 l 1
 488 1007 l 1
195 1007 m 1
 293 1457 l 1
 353 1457 l 1
 299 1007 l 1
 195 1007 l 1
EndSplineSet
EndChar

StartChar: quotedblright
Encoding: 8221 8221 322
Width: 848
VWidth: 0
GlyphClass: 2
Flags: HMW
PickledData: "(dp1
S'org.robofab.postScriptHintData'
p2
(dp3
sS'com.typemytype.robofont.layerData'
p4
(dp5
s."
LayerCount: 2
Fore
SplineSet
195 1007 m 1
 250 1457 l 1
 353 1457 l 1
 255 1007 l 1
 195 1007 l 1
488 1007 m 1
 542 1457 l 1
 646 1457 l 1
 548 1007 l 1
 488 1007 l 1
EndSplineSet
EndChar

StartChar: quoteleft
Encoding: 8216 8216 323
Width: 521
VWidth: 0
GlyphClass: 2
Flags: HMW
PickledData: "(dp1
S'org.robofab.postScriptHintData'
p2
(dp3
sS'com.typemytype.robofont.layerData'
p4
(dp5
s."
LayerCount: 2
Fore
SplineSet
353 1457 m 1
 299 1007 l 1
 195 1007 l 1
 293 1457 l 1
 353 1457 l 1
EndSplineSet
EndChar

StartChar: quoteright
Encoding: 8217 8217 324
Width: 521
VWidth: 0
GlyphClass: 2
Flags: HMW
PickledData: "(dp1
S'org.robofab.postScriptHintData'
p2
(dp3
sS'com.typemytype.robofont.layerData'
p4
(dp5
s."
LayerCount: 2
Fore
SplineSet
195 1007 m 1
 250 1457 l 1
 353 1457 l 1
 255 1007 l 1
 195 1007 l 1
EndSplineSet
EndChar

StartChar: quotesinglbase
Encoding: 8218 8218 325
Width: 404
VWidth: 0
GlyphClass: 2
Flags: HMW
PickledData: "(dp1
S'org.robofab.postScriptHintData'
p2
(dp3
s."
LayerCount: 2
Fore
SplineSet
94 -254 m 1
 164 179 l 1
 244 179 l 1
 142 -254 l 1
 94 -254 l 1
EndSplineSet
EndChar

StartChar: quotesingle
Encoding: 39 39 326
Width: 232
VWidth: 0
GlyphClass: 2
Flags: HMW
PickledData: "(dp1
S'org.robofab.postScriptHintData'
p2
(dp3
s."
LayerCount: 2
Fore
SplineSet
80 1002 m 1
 70 1458 l 1
 151 1458 l 1
 138 1002 l 1
 80 1002 l 1
EndSplineSet
EndChar

StartChar: r
Encoding: 114 114 327
Width: 773
VWidth: 0
GlyphClass: 2
Flags: HMW
PickledData: "(dp1
S'org.pippin.gimp.org.kernagic'
p2
(dp3
S'lstem'
p4
I0
sS'rstem'
p5
I352
ssS'com.typemytype.robofont.layerData'
p6
(dp7
sS'com.fontlab.hintData'
p8
(dp9
S'vhints'
p10
((dp11
S'position'
p12
I193
sS'width'
p13
I122
s(dp14
g12
I193
sg13
I92
stp15
sS'hhints'
p16
((dp17
g12
I974
sg13
I94
stp18
ssS'org.robofab.postScriptHintData'
p19
(dp20
s."
AnchorPoint: "top" 448 1082 basechar 0
LayerCount: 2
Fore
SplineSet
188 0 m 1
 188 1082 l 1
 257 1082 l 1
 267 821 l 1
 342 1030 482 1096 611 1096 c 0
 645 1096 675 1094 695 1091 c 1
 686 1018 l 1
 669 1023 641 1026 624 1026 c 0
 433 1026 285 841 285 642 c 2
 285 0 l 1
 188 0 l 1
EndSplineSet
EndChar

StartChar: radical
Encoding: 8730 8730 329
Width: 1233
VWidth: 0
GlyphClass: 2
Flags: HMW
PickledData: "(dp1
S'org.pippin.gimp.org.kernagic'
p2
(dp3
S'lstem'
p4
I0
sS'rstem'
p5
I0
ssS'com.typemytype.robofont.layerData'
p6
(dp7
S'b'
(dp8
S'name'
p9
S'radical'
p10
sS'lib'
p11
(dp12
sS'unicodes'
p13
(tsS'width'
p14
I1136
sS'contours'
p15
(tsS'components'
p16
(tsS'anchors'
p17
(tsssS'org.robofab.postScriptHintData'
p18
(dp19
s."
LayerCount: 2
Fore
SplineSet
1066 1673 m 1
 1157 1673 l 1
 700 -162 l 1
 627 -162 l 1
 255 782 l 1
 116 753 l 1
 105 812 l 1
 345 864 l 1
 447 590 554 321 651 43 c 1
 661 57 1056 1659 1066 1673 c 1
EndSplineSet
EndChar

StartChar: registered
Encoding: 174 174 332
Width: 1965
VWidth: 0
GlyphClass: 2
Flags: HMW
PickledData: "(dp1
S'org.pippin.gimp.org.kernagic'
p2
(dp3
S'lstem'
p4
I0
sS'rstem'
p5
I0
ssS'com.typemytype.robofont.layerData'
p6
(dp7
sS'org.robofab.postScriptHintData'
p8
(dp9
s."
LayerCount: 2
Fore
SplineSet
980 -46 m 0
 596 -46 176 195 176 763 c 0
 176 1332 597 1574 980 1574 c 0
 1363 1574 1788 1332 1788 763 c 0
 1788 195 1363 -46 980 -46 c 0
980 15 m 0
 1318 15 1703 236 1703 763 c 0
 1703 1292 1318 1513 980 1513 c 0
 642 1513 262 1293 262 763 c 0
 262 235 642 15 980 15 c 0
762 875 m 1
 1073 875 l 2
 1230 875 1257 939 1257 1047 c 0
 1257 1189 1197 1218 1016 1218 c 2
 762 1218 l 1
 762 875 l 1
674 319 m 1
 674 1292 l 1
 1016 1292 l 2
 1287 1292 1336 1210 1336 1052 c 0
 1336 911 1266 812 1138 812 c 2
 1134 812 l 1
 1125 826 1364 319 1364 319 c 1
 1270 319 l 1
 1270 319 1048 793 1046 800 c 1
 760 800 l 1
 760 319 l 1
 674 319 l 1
EndSplineSet
EndChar

StartChar: ring
Encoding: 730 730 333
Width: 624
VWidth: 0
GlyphClass: 4
Flags: HMW
PickledData: "(dp1
S'org.robofab.postScriptHintData'
p2
(dp3
sS'com.typemytype.robofont.layerData'
p4
(dp5
s."
AnchorPoint: "top" 311 1053 mark 0
LayerCount: 2
Fore
SplineSet
311 1203 m 0
 224 1203 148 1267 148 1360 c 0
 148 1451 224 1515 311 1515 c 0
 398 1515 475 1451 475 1360 c 0
 475 1267 399 1203 311 1203 c 0
311 1258 m 0
 366 1258 413 1303 413 1358 c 0
 413 1414 366 1457 311 1457 c 0
 256 1457 211 1414 211 1358 c 0
 211 1303 257 1258 311 1258 c 0
EndSplineSet
EndChar

StartChar: s
Encoding: 115 115 334
Width: 932
VWidth: 0
GlyphClass: 2
Flags: HMW
PickledData: "(dp1
S'org.pippin.gimp.org.kernagic'
p2
(dp3
S'lstem'
p4
I168
sS'rstem'
p5
I620
ssS'com.fontlab.hintData'
p6
(dp7
S'vhints'
p8
((dp9
S'position'
p10
I142
sS'width'
p11
I107
s(dp12
g10
I738
sg11
I104
stp13
sS'hhints'
p14
((dp15
g10
I-19
sg11
I92
s(dp16
g10
I982
sg11
I92
stp17
ssS'com.typemytype.robofont.guides'
p18
((dp19
S'y'
I381
sS'x'
I77
sS'magnetic'
p20
I5
sS'angle'
p21
F90
sS'isGlobal'
p22
I00
stp23
sS'com.typemytype.robofont.layerData'
p24
(dp25
sS'org.robofab.postScriptHintData'
p26
(dp27
s."
AnchorPoint: "top" 494 1082 basechar 0
LayerCount: 2
Fore
SplineSet
182 123 m 1
 196 123 l 1
 278 76 380 53 479 53 c 0
 663 53 738 124 738 268 c 0
 738 398 687 458 530 507 c 2
 376 556 l 2
 202 610 127 694 127 835 c 0
 127 1009 277 1102 490 1102 c 0
 598 1102 706 1071 764 1035 c 1
 737 974 l 1
 726 974 l 1
 667 1010 581 1031 494 1031 c 0
 348 1031 214 973 214 835 c 0
 214 731 268 665 393 625 c 2
 549 574 l 2
 752 511 821 431 821 267 c 0
 820 73 678 -20 479 -20 c 0
 376 -20 256 4 151 63 c 1
 182 123 l 1
EndSplineSet
EndChar

StartChar: section
Encoding: 167 167 340
Width: 1042
VWidth: 0
GlyphClass: 2
Flags: HMW
PickledData: "(dp1
S'org.pippin.gimp.org.kernagic'
p2
(dp3
S'lstem'
p4
I0
sS'rstem'
p5
I0
ssS'com.typemytype.robofont.layerData'
p6
(dp7
S'b'
(dp8
S'name'
p9
S'section'
p10
sS'lib'
p11
(dp12
sS'unicodes'
p13
(tsS'width'
p14
I1079
sS'contours'
p15
(tsS'components'
p16
(tsS'anchors'
p17
(tsssS'org.robofab.postScriptHintData'
p18
(dp19
s."
LayerCount: 2
Fore
SplineSet
652 479 m 0
 713 513 815 539 815 678 c 0
 815 779 683 828 545 882 c 0
 535 883 413 933 412 933 c 0
 348 909 256 857 256 734 c 0
 256 620 306 605 524 524 c 0
 535 523 649 480 652 479 c 0
492 -86 m 0
 386 -86 274 -63 180 -20 c 1
 201 39 l 1
 284 -2 392 -29 497 -29 c 0
 657 -29 801 35 801 203 c 0
 801 313 756 380 499 471 c 0
 284 548 186 570 186 730 c 0
 186 845 258 909 350 958 c 1
 236 1016 183 1089 183 1204 c 0
 183 1391 356 1475 555 1475 c 0
 653 1475 755 1454 843 1417 c 1
 822 1363 l 1
 745 1401 651 1421 561 1421 c 0
 397 1421 257 1352 257 1205 c 0
 257 1038 343 1022 571 933 c 0
 784 849 882 802 882 676 c 0
 882 561 810 504 703 457 c 1
 811 406 875 312 875 203 c 0
 875 1 694 -86 492 -86 c 0
EndSplineSet
EndChar

StartChar: semicolon
Encoding: 59 59 341
Width: 468
VWidth: 0
GlyphClass: 2
Flags: HMW
PickledData: "(dp1
S'org.pippin.gimp.org.kernagic'
p2
(dp3
S'lstem'
p4
I0
sS'rstem'
p5
I0
ssS'com.typemytype.robofont.layerData'
p6
(dp7
sS'org.robofab.postScriptHintData'
p8
(dp9
s."
LayerCount: 2
Fore
SplineSet
239 883 m 0
 173 883 159 928 159 962 c 0
 159 997 171 1040 239 1040 c 0
 304 1040 317 997 317 962 c 0
 317 927 304 883 239 883 c 0
177 -293 m 1
 177 -293 183 74 183 196 c 1
 296 196 l 1
 296 168 l 2
 296 119 216 -293 216 -293 c 1
 177 -293 l 1
EndSplineSet
EndChar

StartChar: seven
Encoding: 55 55 342
Width: 1200
VWidth: 0
GlyphClass: 2
Flags: HMW
PickledData: "(dp1
S'org.pippin.gimp.org.kernagic'
p2
(dp3
S'lstem'
p4
I0
sS'rstem'
p5
I0
ssS'com.typemytype.robofont.layerData'
p6
(dp7
sS'org.robofab.postScriptHintData'
p8
(dp9
s."
LayerCount: 2
Fore
SplineSet
387 0 m 1
 946 1387 l 1
 238 1387 l 1
 206 1456 l 1
 1028 1456 l 1
 1028 1384 l 1
 467 0 l 1
 387 0 l 1
EndSplineSet
EndChar

StartChar: six
Encoding: 54 54 343
Width: 1200
VWidth: 0
GlyphClass: 2
Flags: HMW
PickledData: "(dp1
S'org.pippin.gimp.org.kernagic'
p2
(dp3
S'lstem'
p4
I0
sS'rstem'
p5
I0
ssS'com.typemytype.robofont.layerData'
p6
(dp7
sS'org.robofab.postScriptHintData'
p8
(dp9
s."
LayerCount: 2
Fore
SplineSet
626 56 m 0
 857 56 981 236 981 423 c 0
 981 616 849 764 634 764 c 0
 533 764 276 712 276 414 c 0
 276 231 391 56 626 56 c 0
627 -20 m 0
 325 -20 193 216 193 425 c 0
 193 657 280 790 430 1015 c 2
 725 1456 l 1
 815 1456 l 1
 815 1439 l 1
 658 1204 498 970 343 732 c 1
 414 794 529 835 650 835 c 0
 858 835 1065 680 1065 422 c 0
 1065 189 910 -20 627 -20 c 0
EndSplineSet
EndChar

StartChar: slash
Encoding: 47 47 344
Width: 1017
VWidth: 0
GlyphClass: 2
Flags: HMW
PickledData: "(dp1
S'org.pippin.gimp.org.kernagic'
p2
(dp3
S'lstem'
p4
I0
sS'rstem'
p5
I0
ssS'com.typemytype.robofont.layerData'
p6
(dp7
S'b'
(dp8
S'name'
p9
S'slash'
p10
sS'lib'
p11
(dp12
sS'unicodes'
p13
(tsS'width'
p14
I965
sS'contours'
p15
(tsS'components'
p16
(tsS'anchors'
p17
(tsssS'org.robofab.postScriptHintData'
p18
(dp19
s."
LayerCount: 2
Fore
SplineSet
129 -154 m 1
 852 1560 l 1
 907 1560 l 1
 182 -154 l 1
 129 -154 l 1
EndSplineSet
EndChar

StartChar: slashbar
Encoding: 65543 -1 345
Width: 623
VWidth: 0
GlyphClass: 4
Flags: HMW
PickledData: "(dp1
S'org.pippin.gimp.org.kernagic'
p2
(dp3
S'lstem'
p4
I0
sS'rstem'
p5
I0
ssS'com.typemytype.robofont.layerData'
p6
(dp7
S'b'
(dp8
S'name'
p9
S'slashbar'
p10
sS'lib'
p11
(dp12
sS'unicodes'
p13
(tsS'width'
p14
I908
sS'contours'
p15
(tsS'components'
p16
(tsS'anchors'
p17
(tsssS'org.robofab.postScriptHintData'
p18
(dp19
s."
LayerCount: 2
Fore
SplineSet
75 625 m 1
 75 709 l 1
 570 1040 l 1
 570 956 l 1
 75 625 l 1
EndSplineSet
EndChar

StartChar: sterling
Encoding: 163 163 347
Width: 1231
VWidth: 0
GlyphClass: 2
Flags: HMW
PickledData: "(dp1
S'org.pippin.gimp.org.kernagic'
p2
(dp3
S'lstem'
p4
I0
sS'rstem'
p5
I0
ssS'com.typemytype.robofont.layerData'
p6
(dp7
S'b'
(dp8
S'name'
p9
S'sterling'
p10
sS'lib'
p11
(dp12
sS'unicodes'
p13
(tsS'width'
p14
I1136
sS'contours'
p15
((dp16
S'points'
p17
((dp18
S'segmentType'
p19
S'line'
p20
sS'x'
I20
sS'smooth'
p21
I00
sS'y'
I0
s(dp22
g19
S'line'
p23
sS'x'
I8
sg21
I00
sS'y'
I115
s(dp24
g19
S'line'
p25
sS'x'
I180
sg21
I00
sS'y'
I132
s(dp26
g19
S'line'
p27
sS'x'
I180
sg21
I00
sS'y'
I683
s(dp28
g19
S'line'
p29
sS'x'
I8
sg21
I00
sS'y'
I683
s(dp30
g19
S'line'
p31
sS'x'
I8
sg21
I00
sS'y'
I806
s(dp32
g19
S'line'
p33
sS'x'
I180
sg21
I00
sS'y'
I806
s(dp34
g19
S'line'
p35
sS'x'
I180
sg21
I01
sS'y'
I920
s(dp36
S'y'
I1183
sS'x'
I180
sg21
I00
s(dp37
S'y'
I1476
sS'x'
I245
sg21
I00
s(dp38
g19
S'curve'
p39
sS'x'
I598
sg21
I01
sS'y'
I1476
s(dp40
S'y'
I1476
sS'x'
I742
sg21
I00
s(dp41
S'y'
I1421
sS'x'
I854
sg21
I00
s(dp42
g19
S'curve'
p43
sS'x'
I939
sg21
I00
sS'y'
I1347
s(dp44
g19
S'line'
p45
sS'x'
I871
sg21
I00
sS'y'
I1229
s(dp46
S'y'
I1297
sS'x'
I785
sg21
I00
s(dp47
S'y'
I1334
sS'x'
I700
sg21
I00
s(dp48
g19
S'curve'
p49
sS'x'
I598
sg21
I01
sS'y'
I1334
s(dp50
S'y'
I1334
sS'x'
I397
sg21
I00
s(dp51
S'y'
I1179
sS'x'
I356
sg21
I00
s(dp52
g19
S'curve'
p53
sS'x'
I356
sg21
I01
sS'y'
I949
s(dp54
g19
S'line'
p55
sS'x'
I356
sg21
I00
sS'y'
I806
s(dp56
g19
S'line'
p57
sS'x'
I739
sg21
I00
sS'y'
I806
s(dp58
g19
S'line'
p59
sS'x'
I739
sg21
I00
sS'y'
I683
s(dp60
g19
S'line'
p61
sS'x'
I356
sg21
I00
sS'y'
I683
s(dp62
g19
S'line'
p63
sS'x'
I356
sg21
I00
sS'y'
I134
s(dp64
g19
S'line'
p65
sS'x'
I953
sg21
I00
sS'y'
I134
s(dp66
g19
S'line'
p67
sS'x'
I940
sg21
I00
sS'y'
I0
stp68
stp69
sS'components'
p70
(tsS'anchors'
p71
(tsssS'org.robofab.postScriptHintData'
p72
(dp73
s."
LayerCount: 2
Fore
SplineSet
1020 1299 m 1
 1013 1299 l 1
 926 1371 833 1407 725 1407 c 0
 481 1407 413 1215 413 937 c 2
 413 753 l 1
 844 753 l 1
 844 694 l 1
 413 694 l 1
 413 65 l 1
 1056 65 l 1
 1050 0 l 1
 154 0 l 1
 142 51 l 1
 335 63 l 1
 335 694 l 1
 147 694 l 1
 147 753 l 1
 335 753 l 1
 335 865 l 2
 335 1158 351 1475 732 1475 c 0
 876 1475 980 1421 1057 1355 c 1
 1020 1299 l 1
EndSplineSet
EndChar

StartChar: summation
Encoding: 8721 8721 348
Width: 1340
VWidth: 0
GlyphClass: 2
Flags: HMW
PickledData: "(dp1
S'org.pippin.gimp.org.kernagic'
p2
(dp3
S'lstem'
p4
I0
sS'rstem'
p5
I0
ssS'com.typemytype.robofont.layerData'
p6
(dp7
S'b'
(dp8
S'name'
p9
S'summation'
p10
sS'lib'
p11
(dp12
sS'unicodes'
p13
(tsS'width'
p14
I1050
sS'contours'
p15
(tsS'components'
p16
(tsS'anchors'
p17
(tsssS'org.robofab.postScriptHintData'
p18
(dp19
s."
LayerCount: 2
Fore
SplineSet
151 1556 m 1
 1145 1556 l 1
 1145 1458 l 1
 247 1458 l 1
 903 611 l 1
 226 -260 l 1
 1182 -260 l 1
 1182 -370 l 1
 127 -370 l 1
 127 -309 l 1
 754 604 l 1
 151 1493 l 1
 151 1556 l 1
EndSplineSet
EndChar

StartChar: t
Encoding: 116 116 349
Width: 757
VWidth: 0
GlyphClass: 2
Flags: HMW
PickledData: "(dp1
S'org.pippin.gimp.org.kernagic'
p2
(dp3
S'lstem'
p4
I189
sS'rstem'
p5
I480
ssS'com.typemytype.robofont.layerData'
p6
(dp7
sS'com.fontlab.hintData'
p8
(dp9
S'vhints'
p10
((dp11
S'position'
p12
I244
sS'width'
p13
I122
s(dp14
g12
I286
sg13
I80
stp15
sS'hhints'
p16
((dp17
g12
I-11
sg13
I83
stp18
ssS'org.robofab.postScriptHintData'
p19
(dp20
s."
AnchorPoint: "top" 281 1262 basechar 0
LayerCount: 2
Fore
SplineSet
497 -10 m 0
 349 -10 236 61 236 255 c 2
 236 1028 l 1
 90 1028 l 1
 87 1072 l 1
 237 1083 l 1
 253 1352 l 1
 333 1361 l 1
 333 1082 l 1
 661 1082 l 1
 661 1029 l 1
 333 1029 l 1
 333 264 l 2
 333 93 399 52 508 52 c 0
 578 52 649 60 649 60 c 1
 649 2 l 1
 649 2 588 -10 497 -10 c 0
EndSplineSet
EndChar

StartChar: thorn
Encoding: 254 254 354
Width: 1247
VWidth: 0
GlyphClass: 2
Flags: HMW
PickledData: "(dp1
S'org.pippin.gimp.org.kernagic'
p2
(dp3
S'lstem'
p4
I0
sS'rstem'
p5
I0
ssS'com.typemytype.robofont.layerData'
p6
(dp7
S'b'
(dp8
S'name'
p9
S'thorn'
p10
sS'lib'
p11
(dp12
sS'unicodes'
p13
(tsS'width'
p14
I1221
sS'contours'
p15
(tsS'components'
p16
(tsS'anchors'
p17
(tsssS'org.robofab.postScriptHintData'
p18
(dp19
s."
LayerCount: 2
Fore
SplineSet
182 291 m 1
 278 291 l 1
 278 -512 l 1
 182 -512 l 1
 182 291 l 1
EndSplineSet
Refer: 154 98 N 1 0 0 1 -5 0 2
EndChar

StartChar: three
Encoding: 51 51 355
Width: 1200
VWidth: 0
GlyphClass: 2
Flags: HMW
PickledData: "(dp1
S'org.pippin.gimp.org.kernagic'
p2
(dp3
S'lstem'
p4
I0
sS'rstem'
p5
I0
ssS'com.typemytype.robofont.layerData'
p6
(dp7
sS'org.robofab.postScriptHintData'
p8
(dp9
s."
LayerCount: 2
Fore
SplineSet
563 -20 m 0
 359 -20 219 55 170 86 c 1
 209 143 l 1
 217 143 l 1
 280 103 414 52 570 52 c 0
 813 52 969 151 969 383 c 0
 969 688 733 732 482 737 c 1
 434 737 l 1
 422 818 l 1
 484 818 l 1
 691 828 928 858 928 1124 c 0
 928 1329 758 1402 570 1402 c 0
 447 1402 305 1363 199 1294 c 1
 197 1294 l 1
 157 1358 l 1
 278 1437 428 1476 565 1476 c 0
 809 1476 1014 1360 1014 1128 c 0
 1014 912 900 816 703 778 c 1
 912 741 1051 627 1051 391 c 0
 1051 142 883 -20 563 -20 c 0
EndSplineSet
EndChar

StartChar: threequarters
Encoding: 190 190 356
Width: 1714
VWidth: 0
GlyphClass: 2
Flags: HMW
PickledData: "(dp1
S'org.pippin.gimp.org.kernagic'
p2
(dp3
S'lstem'
p4
I0
sS'rstem'
p5
I0
ssS'com.typemytype.robofont.layerData'
p6
(dp7
sS'org.robofab.postScriptHintData'
p8
(dp9
s."
LayerCount: 2
Fore
SplineSet
1088 275 m 1
 1399 275 l 1
 1399 738 l 1
 1088 275 l 1
418 0 m 1
 1291 1525 l 1
 1372 1525 l 1
 498 0 l 1
 418 0 l 1
1398 -1 m 1
 1398 218 l 1
 1001 218 l 1
 1001 265 l 1
 1388 828 l 1
 1476 828 l 1
 1476 275 l 1
 1594 275 l 1
 1601 218 l 1
 1474 218 l 1
 1474 -1 l 1
 1398 -1 l 1
352 663 m 0
 271 663 188 686 127 729 c 1
 156 786 l 1
 210 750 283 729 350 729 c 0
 447 729 532 774 532 889 c 0
 532 1000 465 1068 329 1068 c 2
 251 1068 l 1
 251 1135 l 1
 329 1135 l 2
 460 1135 524 1196 524 1295 c 0
 524 1399 452 1445 363 1445 c 0
 297 1445 222 1419 162 1374 c 1
 123 1429 l 1
 193 1483 283 1512 366 1512 c 0
 492 1512 602 1446 602 1297 c 0
 602 1198 538 1119 443 1102 c 1
 546 1079 616 999 616 889 c 0
 616 731 489 663 352 663 c 0
EndSplineSet
EndChar

StartChar: tilde
Encoding: 732 732 357
Width: 1006
VWidth: 0
GlyphClass: 4
Flags: HMW
PickledData: "(dp1
S'org.robofab.postScriptHintData'
p2
(dp3
sS'com.typemytype.robofont.layerData'
p4
(dp5
sS'com.fontlab.hintData'
p6
(dp7
S'vhints'
p8
((dp9
S'position'
p10
I169
sS'width'
p11
I63
s(dp12
g10
I657
sg11
I67
stp13
sS'hhints'
p14
((dp15
g10
I1301
sg11
I88
s(dp16
g10
I1400
sg11
I79
stp17
ss."
AnchorPoint: "top" 502 1053 mark 0
LayerCount: 2
Fore
SplineSet
194 1328 m 1
 194 1481 269 1492 323 1492 c 0
 430 1492 547 1400 615 1400 c 0
 650 1400 671 1423 676 1491 c 1
 733 1491 l 1
 733 1334 662 1328 622 1328 c 0
 522 1328 387 1428 309 1428 c 0
 273 1428 248 1397 245 1328 c 1
 194 1328 l 1
EndSplineSet
EndChar

StartChar: trademark
Encoding: 8482 8482 358
Width: 1914
VWidth: 0
GlyphClass: 2
Flags: HMW
PickledData: "(dp1
S'org.robofab.postScriptHintData'
p2
(dp3
sS'com.typemytype.robofont.layerData'
p4
(dp5
S'b'
(dp6
S'name'
p7
S'trademark'
p8
sS'lib'
p9
(dp10
sS'unicodes'
p11
(tsS'width'
p12
I2216
sS'contours'
p13
(tsS'components'
p14
(tsS'anchors'
p15
(tsss."
LayerCount: 2
Fore
SplineSet
371 551 m 1
 371 1445 l 1
 101 1445 l 1
 102 1477 l 1
 703 1477 l 1
 703 1445 l 1
 418 1445 l 1
 418 551 l 1
 371 551 l 1
893 551 m 1
 904 1477 l 1
 962 1477 l 1
 1330 690 l 1
 1671 1477 l 1
 1733 1477 l 1
 1744 551 l 1
 1697 551 l 1
 1688 1426 l 1
 1353 653 l 1
 1307 653 l 1
 944 1427 l 1
 934 551 l 1
 893 551 l 1
EndSplineSet
EndChar

StartChar: two
Encoding: 50 50 359
Width: 1200
VWidth: 0
GlyphClass: 2
Flags: HMW
PickledData: "(dp1
S'org.pippin.gimp.org.kernagic'
p2
(dp3
S'lstem'
p4
I0
sS'rstem'
p5
I0
ssS'com.typemytype.robofont.layerData'
p6
(dp7
sS'org.robofab.postScriptHintData'
p8
(dp9
s."
LayerCount: 2
Fore
SplineSet
182 1308 m 1
 171 1308 l 1
 139 1368 l 1
 223 1421 381 1476 540 1476 c 0
 682 1476 1001 1403 1001 1095 c 0
 1001 865 940 807 747 611 c 2
 220 73 l 1
 1015 73 l 1
 1011 0 l 1
 144 0 l 1
 107 71 l 1
 676 653 l 2
 826 806 911 860 911 1076 c 0
 911 1358 680 1407 546 1407 c 0
 421 1407 293 1373 182 1308 c 1
EndSplineSet
EndChar

StartChar: u
Encoding: 117 117 360
Width: 1169
VWidth: 0
GlyphClass: 2
Flags: HMW
PickledData: "(dp1
S'org.pippin.gimp.org.kernagic'
p2
(dp3
S'lstem'
p4
I0
sS'rstem'
p5
I0
ssS'com.typemytype.robofont.layerData'
p6
(dp7
sS'com.fontlab.hintData'
p8
(dp9
S'vhints'
p10
((dp11
S'position'
p12
I162
sS'width'
p13
I166
s(dp14
g12
I862
sg13
I166
stp15
sS'hhints'
p16
((dp17
g12
I-21
sg13
I126
stp18
ssS'org.robofab.postScriptHintData'
p19
(dp20
s."
AnchorPoint: "top" 585 1082 basechar 0
LayerCount: 2
Fore
SplineSet
887 235 m 1
 887 1082 l 1
 984 1082 l 1
 984 0 l 1
 901 0 l 1
 889 148 l 1
 816 26 719 -20 548 -20 c 0
 307 -20 175 118 175 422 c 2
 175 1082 l 1
 273 1082 l 1
 273 371 l 2
 273 177 353 50 549 50 c 0
 736 50 831 132 887 235 c 1
EndSplineSet
EndChar

StartChar: underscore
Encoding: 95 95 368
Width: 853
VWidth: 0
GlyphClass: 2
Flags: HMW
PickledData: "(dp1
S'org.pippin.gimp.org.kernagic'
p2
(dp3
S'lstem'
p4
I0
sS'rstem'
p5
I0
ssS'com.typemytype.robofont.layerData'
p6
(dp7
sS'org.robofab.postScriptHintData'
p8
(dp9
s."
LayerCount: 2
Fore
SplineSet
0 -244 m 1
 0 -171 l 1
 853 -171 l 1
 853 -244 l 1
 0 -244 l 1
EndSplineSet
EndChar

StartChar: uni00AD
Encoding: 173 173 371
Width: 1152
VWidth: 0
GlyphClass: 2
Flags: HMW
PickledData: "(dp1
S'org.robofab.postScriptHintData'
p2
(dp3
s."
LayerCount: 2
Fore
SplineSet
145 101 m 1
 145 178 l 1
 993 178 l 1
 993 101 l 1
 145 101 l 1
EndSplineSet
EndChar

StartChar: uni00B2
Encoding: 178 178 372
Width: 734
VWidth: 0
GlyphClass: 2
Flags: HMW
PickledData: "(dp1
S'org.robofab.postScriptHintData'
p2
(dp3
sS'com.typemytype.robofont.layerData'
p4
(dp5
s."
LayerCount: 2
Fore
SplineSet
147 695 m 1
 147 756 l 1
 262 867 343 949 409 1016 c 0
 518 1136 553 1200 553 1279 c 0
 553 1385 488 1459 373 1459 c 0
 253 1459 180 1415 115 1340 c 1
 68 1385 l 1
 138 1471 234 1521 367 1521 c 0
 512 1521 627 1439 627 1280 c 0
 627 1162 575 1093 461 976 c 0
 403 917 336 848 246 754 c 1
 626 754 l 1
 625 695 l 1
 147 695 l 1
EndSplineSet
EndChar

StartChar: uni00B3
Encoding: 179 179 373
Width: 870
VWidth: 0
GlyphClass: 2
Flags: HMW
PickledData: "(dp1
S'org.robofab.postScriptHintData'
p2
(dp3
sS'com.typemytype.robofont.layerData'
p4
(dp5
s."
LayerCount: 2
Fore
SplineSet
442 673 m 0
 336 673 237 708 187 772 c 1
 227 818 l 1
 270 769 337 734 443 734 c 0
 544 734 620 792 620 895 c 0
 620 1002 540 1075 422 1075 c 2
 315 1075 l 1
 315 1132 l 1
 422 1132 l 2
 540 1132 616 1205 616 1306 c 0
 616 1409 540 1457 440 1457 c 0
 334 1457 271 1422 228 1373 c 1
 187 1419 l 1
 237 1483 333 1518 439 1518 c 0
 568 1518 684 1455 684 1305 c 0
 684 1192 611 1128 522 1105 c 1
 611 1081 689 1015 689 896 c 0
 689 746 571 673 442 673 c 0
EndSplineSet
EndChar

StartChar: uni00B5
Encoding: 181 181 374
Width: 1168
VWidth: 0
GlyphClass: 2
Flags: HMW
PickledData: "(dp1
S'org.robofab.postScriptHintData'
p2
(dp3
sS'com.typemytype.robofont.layerData'
p4
(dp5
s."
LayerCount: 2
Fore
SplineSet
175 611 m 1
 273 611 l 1
 273 -357 l 1
 175 -357 l 1
 175 611 l 1
EndSplineSet
Refer: 360 117 N 1 0 0 1 0 0 2
EndChar

StartChar: uni00B9
Encoding: 185 185 375
Width: 907
VWidth: 0
GlyphClass: 2
Flags: HMW
PickledData: "(dp1
S'org.robofab.postScriptHintData'
p2
(dp3
sS'com.typemytype.robofont.layerData'
p4
(dp5
s."
LayerCount: 2
Fore
SplineSet
284 695 m 1
 284 754 l 1
 487 754 l 1
 487 1426 l 1
 449 1399 351 1367 287 1352 c 1
 287 1414 l 1
 345 1427 452 1465 498 1511 c 1
 571 1511 l 1
 571 754 l 1
 761 754 l 1
 761 695 l 1
 284 695 l 1
EndSplineSet
EndChar

StartChar: uni02C9
Encoding: 713 713 444
Width: 600
VWidth: 0
GlyphClass: 4
Flags: HMW
PickledData: "(dp1
S'org.robofab.postScriptHintData'
p2
(dp3
s."
AnchorPoint: "top" 320 1053 mark 0
LayerCount: 2
Fore
SplineSet
40 1286 m 1
 40 1373 l 1
 562 1373 l 1
 562 1286 l 1
 40 1286 l 1
EndSplineSet
EndChar

StartChar: uni0307
Encoding: 775 775 445
Width: 271
VWidth: 0
GlyphClass: 2
Flags: HMW
PickledData: "(dp1
S'org.robofab.postScriptHintData'
p2
(dp3
sS'com.typemytype.robofont.layerData'
p4
(dp5
s."
LayerCount: 2
Fore
SplineSet
217 1449 m 0
 217 1401 194 1377 144 1377 c 0
 93 1377 70 1401 70 1449 c 0
 70 1497 93 1521 144 1521 c 0
 194 1521 217 1497 217 1449 c 0
EndSplineSet
EndChar

StartChar: uni2074
Encoding: 8308 8308 464
Width: 713
VWidth: 0
GlyphClass: 2
Flags: HMW
PickledData: "(dp1
S'org.robofab.postScriptHintData'
p2
(dp3
sS'com.typemytype.robofont.layerData'
p4
(dp5
s."
LayerCount: 2
Fore
SplineSet
182 947 m 1
 461 947 l 1
 463 1414 l 1
 182 947 l 1
461 656 m 1
 461 888 l 1
 100 888 l 1
 100 952 l 1
 455 1515 l 1
 547 1515 l 1
 547 947 l 1
 672 947 l 1
 675 888 l 1
 543 888 l 1
 545 656 l 1
 461 656 l 1
EndSplineSet
EndChar

StartChar: uni2113
Encoding: 8467 8467 465
Width: 1098
VWidth: 0
GlyphClass: 2
Flags: HMW
PickledData: "(dp1
S'org.robofab.postScriptHintData'
p2
(dp3
s."
LayerCount: 2
Fore
SplineSet
508 697 m 1
 567 750 758 922 760 922 c 0
 988 1126 1040 1286 1040 1422 c 0
 1040 1532 996 1605 885 1605 c 2
 883 1605 l 2
 789 1605 713 1549 678 1408 c 2
 508 697 l 1
315 224 m 0
 315 303 332 403 370 525 c 1
 125 334 l 1
 90 380 l 1
 391 613 l 1
 603 1396 l 2
 667 1631 778 1671 884 1671 c 0
 999 1670 1110 1606 1110 1424 c 0
 1110 1214 1021 1073 786 865 c 2
 485 598 l 1
 440 417 l 2
 420 334 408 263 408 207 c 0
 408 102 449 47 552 47 c 0
 637 47 721 84 824 150 c 1
 843 98 l 1
 843 98 715 -21 523 -21 c 0
 394 -21 315 48 315 224 c 0
EndSplineSet
EndChar

StartChar: uni2206
Encoding: 8710 8710 467
Width: 1352
VWidth: 0
GlyphClass: 2
Flags: HMW
PickledData: "(dp1
S'org.pippin.gimp.org.kernagic'
p2
(dp3
S'lstem'
p4
I0
sS'rstem'
p5
I0
ssS'com.typemytype.robofont.layerData'
p6
(dp7
S'b'
(dp8
S'name'
p9
S'uni2206'
p10
sS'lib'
p11
(dp12
sS'unicodes'
p13
(tsS'width'
p14
I1278
sS'contours'
p15
(tsS'components'
p16
(tsS'anchors'
p17
(tsssS'org.robofab.postScriptHintData'
p18
(dp19
s."
LayerCount: 2
Fore
SplineSet
703 1311 m 1
 669 1426 l 1
 637 1311 l 1
 193 101 l 1
 1139 101 l 1
 703 1311 l 1
631 1501 m 1
 725 1501 l 1
 1252 83 l 1
 1252 0 l 1
 103 0 l 1
 103 83 l 1
 631 1501 l 1
EndSplineSet
EndChar

StartChar: v
Encoding: 118 118 478
Width: 1038
VWidth: 0
GlyphClass: 2
Flags: HMW
PickledData: "(dp1
S'org.pippin.gimp.org.kernagic'
p2
(dp3
S'lstem'
p4
I0
sS'rstem'
p5
I0
ssS'com.typemytype.robofont.guides'
p6
((dp7
S'y'
I552
sS'x'
I438
sS'magnetic'
p8
I5
sS'angle'
p9
I0
sS'isGlobal'
p10
I00
stp11
sS'com.typemytype.robofont.layerData'
p12
(dp13
sS'org.robofab.postScriptHintData'
p14
(dp15
s."
LayerCount: 2
Fore
SplineSet
465 0 m 1
 62 1082 l 1
 156 1082 l 1
 275 745 391 406 517 77 c 1
 645 405 762 745 882 1082 c 1
 976 1082 l 1
 573 0 l 1
 465 0 l 1
EndSplineSet
EndChar

StartChar: w
Encoding: 119 119 479
Width: 1508
VWidth: 0
GlyphClass: 2
Flags: HMW
PickledData: "(dp1
S'org.pippin.gimp.org.kernagic'
p2
(dp3
S'lstem'
p4
I0
sS'rstem'
p5
I0
ssS'com.typemytype.robofont.layerData'
p6
(dp7
sS'org.robofab.postScriptHintData'
p8
(dp9
s."
AnchorPoint: "top" 754 1082 basechar 0
LayerCount: 2
Fore
SplineSet
755 994 m 1
 418 0 l 1
 342 0 l 1
 63 1082 l 1
 150 1082 l 1
 382 92 l 1
 704 1054 l 1
 804 1054 l 1
 1121 92 l 1
 1362 1082 l 1
 1445 1082 l 1
 1160 0 l 1
 1087 0 l 1
 755 994 l 1
EndSplineSet
EndChar

StartChar: x
Encoding: 120 120 484
Width: 1013
VWidth: 0
GlyphClass: 2
Flags: HMW
PickledData: "(dp1
S'org.pippin.gimp.org.kernagic'
p2
(dp3
S'lstem'
p4
I0
sS'rstem'
p5
I0
ssS'com.typemytype.robofont.layerData'
p6
(dp7
sS'com.fontlab.hintData'
p8
(dp9
S'hhints'
p10
((dp11
S'position'
p12
I0
sS'width'
p13
I22
s(dp14
g12
I1034
sg13
I21
stp15
ssS'org.robofab.postScriptHintData'
p16
(dp17
s."
LayerCount: 2
Fore
SplineSet
576 541 m 1
 966 0 l 1
 862 0 l 1
 512 484 l 1
 153 0 l 1
 46 0 l 1
 463 552 l 1
 79 1082 l 1
 186 1082 l 1
 529 607 l 1
 864 1082 l 1
 971 1082 l 1
 576 541 l 1
EndSplineSet
EndChar

StartChar: y
Encoding: 121 121 485
Width: 1070
VWidth: 0
GlyphClass: 2
Flags: HMW
PickledData: "(dp1
S'org.pippin.gimp.org.kernagic'
p2
(dp3
S'lstem'
p4
I0
sS'rstem'
p5
I0
ssS'com.typemytype.robofont.layerData'
p6
(dp7
sS'org.robofab.postScriptHintData'
p8
(dp9
s."
AnchorPoint: "top" 564 1082 basechar 0
LayerCount: 2
Fore
SplineSet
1013 1082 m 1
 439 -401 l 1
 363 -369 l 1
 529 50 l 1
 74 1082 l 1
 172 1082 l 1
 572 162 l 1
 920 1082 l 1
 1013 1082 l 1
EndSplineSet
EndChar

StartChar: yen
Encoding: 165 165 489
Width: 1231
VWidth: 0
GlyphClass: 2
Flags: HMW
PickledData: "(dp1
S'org.pippin.gimp.org.kernagic'
p2
(dp3
S'lstem'
p4
I0
sS'rstem'
p5
I0
ssS'com.typemytype.robofont.layerData'
p6
(dp7
S'b'
(dp8
S'name'
p9
S'yen'
p10
sS'lib'
p11
(dp12
sS'unicodes'
p13
(tsS'width'
p14
I1366
sS'contours'
p15
(tsS'components'
p16
(tsS'anchors'
p17
(tsssS'org.robofab.postScriptHintData'
p18
(dp19
s."
LayerCount: 2
Fore
SplineSet
253 625 m 1
 253 687 l 1
 991 687 l 1
 991 625 l 1
 253 625 l 1
253 326 m 1
 253 388 l 1
 991 388 l 1
 991 326 l 1
 253 326 l 1
EndSplineSet
Refer: 123 89 N 1 0 0 1 0 0 2
EndChar

StartChar: z
Encoding: 122 122 491
Width: 896
VWidth: 0
GlyphClass: 2
Flags: HMW
PickledData: "(dp1
S'org.pippin.gimp.org.kernagic'
p2
(dp3
S'lstem'
p4
I0
sS'rstem'
p5
I0
ssS'com.typemytype.robofont.layerData'
p6
(dp7
sS'org.robofab.postScriptHintData'
p8
(dp9
s."
AnchorPoint: "top" 476 1082 basechar 0
LayerCount: 2
Fore
SplineSet
142 1082 m 1
 784 1082 l 1
 784 1018 l 1
 200 61 l 1
 788 61 l 1
 789 0 l 1
 121 0 l 1
 121 66 l 1
 702 1019 l 1
 142 1019 l 1
 142 1082 l 1
EndSplineSet
EndChar

StartChar: zero
Encoding: 48 48 495
Width: 1235
VWidth: 0
GlyphClass: 2
Flags: HMW
PickledData: "(dp1
S'org.pippin.gimp.org.kernagic'
p2
(dp3
S'lstem'
p4
I0
sS'rstem'
p5
I0
ssS'com.typemytype.robofont.layerData'
p6
(dp7
S'b'
(dp8
S'name'
p9
S'zero'
p10
sS'lib'
p11
(dp12
sS'unicodes'
p13
(tsS'width'
p14
I1248
sS'contours'
p15
(tsS'components'
p16
(tsS'anchors'
p17
(tsssS'org.robofab.postScriptHintData'
p18
(dp19
s."
LayerCount: 2
Fore
SplineSet
621 -20 m 0
 306 -20 145 249 145 725 c 0
 145 1234 330 1476 621 1476 c 0
 909 1476 1079 1237 1079 725 c 0
 1079 249 934 -20 621 -20 c 0
621 59 m 0
 827 59 987 205 987 729 c 0
 987 1269 827 1395 621 1395 c 0
 413 1395 240 1221 240 739 c 2
 240 727 l 2
 240 203 413 59 621 59 c 0
EndSplineSet
EndChar
